G04 #@! TF.GenerationSoftware,KiCad,Pcbnew,6.0.2+dfsg-1*
G04 #@! TF.CreationDate,2023-05-07T21:41:23+02:00*
G04 #@! TF.ProjectId,fm-rpt-control,666d2d72-7074-42d6-936f-6e74726f6c2e,A*
G04 #@! TF.SameCoordinates,Original*
G04 #@! TF.FileFunction,Soldermask,Bot*
G04 #@! TF.FilePolarity,Negative*
%FSLAX46Y46*%
G04 Gerber Fmt 4.6, Leading zero omitted, Abs format (unit mm)*
G04 Created by KiCad (PCBNEW 6.0.2+dfsg-1) date 2023-05-07 21:41:23*
%MOMM*%
%LPD*%
G01*
G04 APERTURE LIST*
G04 Aperture macros list*
%AMRoundRect*
0 Rectangle with rounded corners*
0 $1 Rounding radius*
0 $2 $3 $4 $5 $6 $7 $8 $9 X,Y pos of 4 corners*
0 Add a 4 corners polygon primitive as box body*
4,1,4,$2,$3,$4,$5,$6,$7,$8,$9,$2,$3,0*
0 Add four circle primitives for the rounded corners*
1,1,$1+$1,$2,$3*
1,1,$1+$1,$4,$5*
1,1,$1+$1,$6,$7*
1,1,$1+$1,$8,$9*
0 Add four rect primitives between the rounded corners*
20,1,$1+$1,$2,$3,$4,$5,0*
20,1,$1+$1,$4,$5,$6,$7,0*
20,1,$1+$1,$6,$7,$8,$9,0*
20,1,$1+$1,$8,$9,$2,$3,0*%
%AMFreePoly0*
4,1,25,0.555019,1.072796,0.567142,1.062442,1.062442,0.567142,1.090949,0.511194,1.092200,0.495300,1.092200,-0.495300,1.072796,-0.555019,1.062442,-0.567142,0.567142,-1.062442,0.511194,-1.090949,0.495300,-1.092200,-0.495300,-1.092200,-0.555019,-1.072796,-0.567142,-1.062442,-1.062442,-0.567142,-1.090949,-0.511194,-1.092200,-0.495300,-1.092200,0.495300,-1.072796,0.555019,-1.062442,0.567142,
-0.567142,1.062442,-0.511194,1.090949,-0.495300,1.092200,0.495300,1.092200,0.555019,1.072796,0.555019,1.072796,$1*%
G04 Aperture macros list end*
%ADD10C,2.000000*%
%ADD11C,1.600000*%
%ADD12R,1.200000X2.500000*%
%ADD13O,1.625600X3.048000*%
%ADD14C,1.879600*%
%ADD15C,2.794000*%
%ADD16FreePoly0,180.000000*%
%ADD17O,2.184400X4.165600*%
%ADD18C,4.000000*%
%ADD19R,1.600000X1.600000*%
%ADD20O,1.600000X1.600000*%
%ADD21R,1.700000X1.700000*%
%ADD22O,1.700000X1.700000*%
%ADD23RoundRect,0.101600X-0.654000X0.654000X-0.654000X-0.654000X0.654000X-0.654000X0.654000X0.654000X0*%
%ADD24C,2.003200*%
%ADD25RoundRect,0.101600X0.654000X-0.654000X0.654000X0.654000X-0.654000X0.654000X-0.654000X-0.654000X0*%
%ADD26C,2.340000*%
%ADD27R,2.500000X1.200000*%
%ADD28C,1.100000*%
%ADD29O,1.800000X2.300000*%
%ADD30O,2.000000X2.300000*%
%ADD31C,2.200000*%
%ADD32C,1.700000*%
%ADD33C,3.200000*%
%ADD34O,3.500000X3.500000*%
%ADD35R,1.905000X2.000000*%
%ADD36O,1.905000X2.000000*%
%ADD37R,4.600000X2.000000*%
%ADD38O,4.200000X2.000000*%
%ADD39O,2.000000X4.200000*%
%ADD40C,3.000000*%
%ADD41C,2.500000*%
%ADD42C,2.184400*%
%ADD43RoundRect,0.150000X-0.150000X0.512500X-0.150000X-0.512500X0.150000X-0.512500X0.150000X0.512500X0*%
G04 APERTURE END LIST*
D10*
X50460000Y-109955000D03*
X53000000Y-104875000D03*
X55540000Y-109955000D03*
D11*
X76575000Y-29826000D03*
X79750000Y-29826000D03*
X82925000Y-29826000D03*
X76575000Y-33001000D03*
X79750000Y-33001000D03*
X82925000Y-33001000D03*
D12*
X73400000Y-31096000D03*
X86100000Y-31096000D03*
D13*
X104550000Y-164400000D03*
X102010000Y-164400000D03*
X99470000Y-164400000D03*
D14*
X104550000Y-169480000D03*
X99470000Y-169480000D03*
D10*
X42926000Y-131941000D03*
X40386000Y-126861000D03*
X37846000Y-131941000D03*
X54864000Y-142355000D03*
X52324000Y-137275000D03*
X49784000Y-142355000D03*
D15*
X135820000Y-23130000D03*
X120580000Y-23130000D03*
D16*
X120580000Y-28210000D03*
D17*
X128200000Y-28210000D03*
D16*
X135820000Y-28210000D03*
X123120000Y-30750000D03*
X133280000Y-30750000D03*
X130740000Y-18050000D03*
X125660000Y-18050000D03*
D18*
X46850000Y-23280331D03*
X21850000Y-23280331D03*
D19*
X28810000Y-23580331D03*
D11*
X31580000Y-23580331D03*
X34350000Y-23580331D03*
X37120000Y-23580331D03*
X39890000Y-23580331D03*
X30195000Y-20740331D03*
X32965000Y-20740331D03*
X35735000Y-20740331D03*
X38505000Y-20740331D03*
D19*
X104375000Y-78200000D03*
D20*
X101835000Y-78200000D03*
X99295000Y-78200000D03*
X96755000Y-78200000D03*
X94215000Y-78200000D03*
X91675000Y-78200000D03*
X89135000Y-78200000D03*
X86595000Y-78200000D03*
X84055000Y-78200000D03*
D10*
X148070000Y-165130000D03*
X145530000Y-165130000D03*
X148070000Y-167670000D03*
X145530000Y-167670000D03*
D21*
X24335000Y-65500000D03*
D22*
X21795000Y-65500000D03*
X19255000Y-65500000D03*
D11*
X114830000Y-29570000D03*
X114830000Y-32070000D03*
D23*
X105615000Y-60375000D03*
X105615000Y-52755000D03*
X92915000Y-60375000D03*
X92915000Y-52755000D03*
D11*
X59200000Y-31000000D03*
X61700000Y-31000000D03*
D24*
X122790000Y-164420000D03*
X120250000Y-164420000D03*
X117710000Y-164420000D03*
X122790000Y-161880000D03*
X120250000Y-161880000D03*
X117710000Y-161880000D03*
D14*
X122790000Y-169500000D03*
X117710000Y-169500000D03*
D25*
X55675000Y-41095000D03*
X55675000Y-48715000D03*
X68375000Y-41095000D03*
X68375000Y-48715000D03*
D11*
X66950000Y-31800000D03*
X69450000Y-31800000D03*
D26*
X41450000Y-168950000D03*
X46450000Y-168950000D03*
X51450000Y-168950000D03*
D11*
X92576000Y-38675000D03*
X92576000Y-35500000D03*
X92576000Y-32325000D03*
X95751000Y-38675000D03*
X95751000Y-35500000D03*
X95751000Y-32325000D03*
D27*
X93846000Y-41850000D03*
X93846000Y-29150000D03*
D21*
X107939000Y-72265000D03*
D22*
X107939000Y-74805000D03*
X105399000Y-72265000D03*
X105399000Y-74805000D03*
X102859000Y-72265000D03*
X102859000Y-74805000D03*
X100319000Y-72265000D03*
X100319000Y-74805000D03*
X97779000Y-72265000D03*
X97779000Y-74805000D03*
X95239000Y-72265000D03*
X95239000Y-74805000D03*
X92699000Y-72265000D03*
X92699000Y-74805000D03*
X90159000Y-72265000D03*
X90159000Y-74805000D03*
X87619000Y-72265000D03*
X87619000Y-74805000D03*
X85079000Y-72265000D03*
X85079000Y-74805000D03*
X82539000Y-72265000D03*
X82539000Y-74805000D03*
X79999000Y-72265000D03*
X79999000Y-74805000D03*
X77459000Y-72265000D03*
X77459000Y-74805000D03*
X74919000Y-72265000D03*
X74919000Y-74805000D03*
X72379000Y-72265000D03*
X72379000Y-74805000D03*
D10*
X28440000Y-91200000D03*
X25900000Y-86120000D03*
X23360000Y-91200000D03*
D25*
X115735000Y-41905000D03*
X115735000Y-49525000D03*
X128435000Y-41905000D03*
X128435000Y-49525000D03*
X73925000Y-41045000D03*
X73925000Y-48665000D03*
X86625000Y-41045000D03*
X86625000Y-48665000D03*
D11*
X21520000Y-51450000D03*
X21520000Y-48950000D03*
D28*
X34000000Y-166625000D03*
X29000000Y-166625000D03*
D29*
X29200000Y-162625000D03*
X33800000Y-162625000D03*
D30*
X28750000Y-170125000D03*
X34250000Y-170125000D03*
D31*
X161350000Y-167200000D03*
X168350000Y-167200000D03*
D32*
X167100000Y-169700000D03*
X162600000Y-169700000D03*
D10*
X38700000Y-91200000D03*
X36160000Y-86120000D03*
X33620000Y-91200000D03*
X60740000Y-89055000D03*
X58200000Y-83975000D03*
X55660000Y-89055000D03*
X42926000Y-142355000D03*
X40386000Y-137275000D03*
X37846000Y-142355000D03*
X42926000Y-152769000D03*
X40386000Y-147689000D03*
X37846000Y-152769000D03*
X54864000Y-152769000D03*
X52324000Y-147689000D03*
X49784000Y-152769000D03*
X66802000Y-131941000D03*
X64262000Y-126861000D03*
X61722000Y-131941000D03*
X54864000Y-131941000D03*
X52324000Y-126861000D03*
X49784000Y-131941000D03*
D33*
X142800000Y-95700000D03*
D34*
X166800000Y-82230000D03*
D35*
X169340000Y-65570000D03*
D36*
X166800000Y-65570000D03*
X164260000Y-65570000D03*
D25*
X133975000Y-41915000D03*
X133975000Y-49535000D03*
X146675000Y-41915000D03*
X146675000Y-49535000D03*
D26*
X61070000Y-168950000D03*
X66070000Y-168950000D03*
X71070000Y-168950000D03*
D37*
X166760000Y-29490000D03*
D38*
X166760000Y-23190000D03*
D39*
X161960000Y-26590000D03*
D40*
X166940000Y-61630000D03*
X166940000Y-39030000D03*
D10*
X153680000Y-162713500D03*
X151140000Y-162713500D03*
X153680000Y-165253500D03*
X151140000Y-165253500D03*
X153680000Y-167793500D03*
X151140000Y-167793500D03*
D18*
X88420000Y-23300331D03*
X113420000Y-23300331D03*
D19*
X95380000Y-23600331D03*
D11*
X98150000Y-23600331D03*
X100920000Y-23600331D03*
X103690000Y-23600331D03*
X106460000Y-23600331D03*
X96765000Y-20760331D03*
X99535000Y-20760331D03*
X102305000Y-20760331D03*
X105075000Y-20760331D03*
D19*
X151080000Y-58060000D03*
D11*
X154580000Y-58060000D03*
D18*
X55130000Y-23300331D03*
X80130000Y-23300331D03*
D19*
X62090000Y-23600331D03*
D11*
X64860000Y-23600331D03*
X67630000Y-23600331D03*
X70400000Y-23600331D03*
X73170000Y-23600331D03*
X63475000Y-20760331D03*
X66245000Y-20760331D03*
X69015000Y-20760331D03*
X71785000Y-20760331D03*
X136990000Y-33210000D03*
X139490000Y-33210000D03*
D25*
X20100000Y-33670000D03*
X20100000Y-41290000D03*
X32800000Y-33670000D03*
X32800000Y-41290000D03*
D24*
X141040000Y-164420000D03*
X138500000Y-164420000D03*
X135960000Y-164420000D03*
X141040000Y-161880000D03*
X138500000Y-161880000D03*
X135960000Y-161880000D03*
D14*
X141040000Y-169500000D03*
X135960000Y-169500000D03*
D11*
X85000000Y-57850000D03*
X87500000Y-57850000D03*
D41*
X57788500Y-63846500D03*
X60963500Y-56353500D03*
X54613500Y-56353500D03*
X79886500Y-63846500D03*
X79886500Y-56353500D03*
D34*
X155720000Y-92800000D03*
D35*
X158260000Y-76140000D03*
D36*
X155720000Y-76140000D03*
X153180000Y-76140000D03*
D33*
X70450000Y-114700000D03*
D13*
X113690000Y-164400000D03*
X111150000Y-164400000D03*
X108610000Y-164400000D03*
D14*
X113690000Y-169480000D03*
X108610000Y-169480000D03*
D26*
X80750000Y-168950000D03*
X85750000Y-168950000D03*
X90750000Y-168950000D03*
D13*
X131940000Y-164380000D03*
X129400000Y-164380000D03*
X126860000Y-164380000D03*
D14*
X131940000Y-169460000D03*
X126860000Y-169460000D03*
D15*
X142670000Y-23140000D03*
X157910000Y-23140000D03*
D16*
X145210000Y-28220000D03*
X150290000Y-28220000D03*
X155370000Y-28220000D03*
X147750000Y-30760000D03*
X152830000Y-30760000D03*
X150290000Y-33300000D03*
X142670000Y-30760000D03*
X157910000Y-30760000D03*
D42*
X152830000Y-18060000D03*
X147750000Y-18060000D03*
D41*
X37403500Y-33308500D03*
X44896500Y-36483500D03*
X44896500Y-30133500D03*
X37403500Y-55406500D03*
X44896500Y-55406500D03*
D43*
X42150000Y-18012500D03*
X43100000Y-18012500D03*
X44050000Y-18012500D03*
X44050000Y-20287500D03*
X43100000Y-20287500D03*
X42150000Y-20287500D03*
X108450000Y-17962500D03*
X109400000Y-17962500D03*
X110350000Y-17962500D03*
X110350000Y-20237500D03*
X109400000Y-20237500D03*
X108450000Y-20237500D03*
X75000000Y-17962500D03*
X75950000Y-17962500D03*
X76900000Y-17962500D03*
X76900000Y-20237500D03*
X75950000Y-20237500D03*
X75000000Y-20237500D03*
M02*
