G04 #@! TF.GenerationSoftware,KiCad,Pcbnew,6.0.2+dfsg-1*
G04 #@! TF.CreationDate,2023-05-08T07:17:19+02:00*
G04 #@! TF.ProjectId,fm-rpt-control,666d2d72-7074-42d6-936f-6e74726f6c2e,A*
G04 #@! TF.SameCoordinates,Original*
G04 #@! TF.FileFunction,Legend,Bot*
G04 #@! TF.FilePolarity,Positive*
%FSLAX46Y46*%
G04 Gerber Fmt 4.6, Leading zero omitted, Abs format (unit mm)*
G04 Created by KiCad (PCBNEW 6.0.2+dfsg-1) date 2023-05-08 07:17:19*
%MOMM*%
%LPD*%
G01*
G04 APERTURE LIST*
%ADD10C,0.150000*%
%ADD11C,0.120000*%
G04 APERTURE END LIST*
D10*
X41152380Y-17459523D02*
X40152380Y-17459523D01*
X40152380Y-17697619D01*
X40200000Y-17840476D01*
X40295238Y-17935714D01*
X40390476Y-17983333D01*
X40580952Y-18030952D01*
X40723809Y-18030952D01*
X40914285Y-17983333D01*
X41009523Y-17935714D01*
X41104761Y-17840476D01*
X41152380Y-17697619D01*
X41152380Y-17459523D01*
X40152380Y-18888095D02*
X40152380Y-18697619D01*
X40200000Y-18602380D01*
X40247619Y-18554761D01*
X40390476Y-18459523D01*
X40580952Y-18411904D01*
X40961904Y-18411904D01*
X41057142Y-18459523D01*
X41104761Y-18507142D01*
X41152380Y-18602380D01*
X41152380Y-18792857D01*
X41104761Y-18888095D01*
X41057142Y-18935714D01*
X40961904Y-18983333D01*
X40723809Y-18983333D01*
X40628571Y-18935714D01*
X40580952Y-18888095D01*
X40533333Y-18792857D01*
X40533333Y-18602380D01*
X40580952Y-18507142D01*
X40628571Y-18459523D01*
X40723809Y-18411904D01*
X40152380Y-19602380D02*
X40152380Y-19697619D01*
X40200000Y-19792857D01*
X40247619Y-19840476D01*
X40342857Y-19888095D01*
X40533333Y-19935714D01*
X40771428Y-19935714D01*
X40961904Y-19888095D01*
X41057142Y-19840476D01*
X41104761Y-19792857D01*
X41152380Y-19697619D01*
X41152380Y-19602380D01*
X41104761Y-19507142D01*
X41057142Y-19459523D01*
X40961904Y-19411904D01*
X40771428Y-19364285D01*
X40533333Y-19364285D01*
X40342857Y-19411904D01*
X40247619Y-19459523D01*
X40200000Y-19507142D01*
X40152380Y-19602380D01*
X41152380Y-20888095D02*
X41152380Y-20316666D01*
X41152380Y-20602380D02*
X40152380Y-20602380D01*
X40295238Y-20507142D01*
X40390476Y-20411904D01*
X40438095Y-20316666D01*
X107452380Y-17409523D02*
X106452380Y-17409523D01*
X106452380Y-17647619D01*
X106500000Y-17790476D01*
X106595238Y-17885714D01*
X106690476Y-17933333D01*
X106880952Y-17980952D01*
X107023809Y-17980952D01*
X107214285Y-17933333D01*
X107309523Y-17885714D01*
X107404761Y-17790476D01*
X107452380Y-17647619D01*
X107452380Y-17409523D01*
X106452380Y-18838095D02*
X106452380Y-18647619D01*
X106500000Y-18552380D01*
X106547619Y-18504761D01*
X106690476Y-18409523D01*
X106880952Y-18361904D01*
X107261904Y-18361904D01*
X107357142Y-18409523D01*
X107404761Y-18457142D01*
X107452380Y-18552380D01*
X107452380Y-18742857D01*
X107404761Y-18838095D01*
X107357142Y-18885714D01*
X107261904Y-18933333D01*
X107023809Y-18933333D01*
X106928571Y-18885714D01*
X106880952Y-18838095D01*
X106833333Y-18742857D01*
X106833333Y-18552380D01*
X106880952Y-18457142D01*
X106928571Y-18409523D01*
X107023809Y-18361904D01*
X106452380Y-19552380D02*
X106452380Y-19647619D01*
X106500000Y-19742857D01*
X106547619Y-19790476D01*
X106642857Y-19838095D01*
X106833333Y-19885714D01*
X107071428Y-19885714D01*
X107261904Y-19838095D01*
X107357142Y-19790476D01*
X107404761Y-19742857D01*
X107452380Y-19647619D01*
X107452380Y-19552380D01*
X107404761Y-19457142D01*
X107357142Y-19409523D01*
X107261904Y-19361904D01*
X107071428Y-19314285D01*
X106833333Y-19314285D01*
X106642857Y-19361904D01*
X106547619Y-19409523D01*
X106500000Y-19457142D01*
X106452380Y-19552380D01*
X106880952Y-20457142D02*
X106833333Y-20361904D01*
X106785714Y-20314285D01*
X106690476Y-20266666D01*
X106642857Y-20266666D01*
X106547619Y-20314285D01*
X106500000Y-20361904D01*
X106452380Y-20457142D01*
X106452380Y-20647619D01*
X106500000Y-20742857D01*
X106547619Y-20790476D01*
X106642857Y-20838095D01*
X106690476Y-20838095D01*
X106785714Y-20790476D01*
X106833333Y-20742857D01*
X106880952Y-20647619D01*
X106880952Y-20457142D01*
X106928571Y-20361904D01*
X106976190Y-20314285D01*
X107071428Y-20266666D01*
X107261904Y-20266666D01*
X107357142Y-20314285D01*
X107404761Y-20361904D01*
X107452380Y-20457142D01*
X107452380Y-20647619D01*
X107404761Y-20742857D01*
X107357142Y-20790476D01*
X107261904Y-20838095D01*
X107071428Y-20838095D01*
X106976190Y-20790476D01*
X106928571Y-20742857D01*
X106880952Y-20647619D01*
X74002380Y-17409523D02*
X73002380Y-17409523D01*
X73002380Y-17647619D01*
X73050000Y-17790476D01*
X73145238Y-17885714D01*
X73240476Y-17933333D01*
X73430952Y-17980952D01*
X73573809Y-17980952D01*
X73764285Y-17933333D01*
X73859523Y-17885714D01*
X73954761Y-17790476D01*
X74002380Y-17647619D01*
X74002380Y-17409523D01*
X73002380Y-18838095D02*
X73002380Y-18647619D01*
X73050000Y-18552380D01*
X73097619Y-18504761D01*
X73240476Y-18409523D01*
X73430952Y-18361904D01*
X73811904Y-18361904D01*
X73907142Y-18409523D01*
X73954761Y-18457142D01*
X74002380Y-18552380D01*
X74002380Y-18742857D01*
X73954761Y-18838095D01*
X73907142Y-18885714D01*
X73811904Y-18933333D01*
X73573809Y-18933333D01*
X73478571Y-18885714D01*
X73430952Y-18838095D01*
X73383333Y-18742857D01*
X73383333Y-18552380D01*
X73430952Y-18457142D01*
X73478571Y-18409523D01*
X73573809Y-18361904D01*
X73002380Y-19552380D02*
X73002380Y-19647619D01*
X73050000Y-19742857D01*
X73097619Y-19790476D01*
X73192857Y-19838095D01*
X73383333Y-19885714D01*
X73621428Y-19885714D01*
X73811904Y-19838095D01*
X73907142Y-19790476D01*
X73954761Y-19742857D01*
X74002380Y-19647619D01*
X74002380Y-19552380D01*
X73954761Y-19457142D01*
X73907142Y-19409523D01*
X73811904Y-19361904D01*
X73621428Y-19314285D01*
X73383333Y-19314285D01*
X73192857Y-19361904D01*
X73097619Y-19409523D01*
X73050000Y-19457142D01*
X73002380Y-19552380D01*
X73097619Y-20266666D02*
X73050000Y-20314285D01*
X73002380Y-20409523D01*
X73002380Y-20647619D01*
X73050000Y-20742857D01*
X73097619Y-20790476D01*
X73192857Y-20838095D01*
X73288095Y-20838095D01*
X73430952Y-20790476D01*
X74002380Y-20219047D01*
X74002380Y-20838095D01*
D11*
X44660000Y-19150000D02*
X44660000Y-19950000D01*
X44660000Y-19150000D02*
X44660000Y-18350000D01*
X41540000Y-19150000D02*
X41540000Y-17350000D01*
X41540000Y-19150000D02*
X41540000Y-19950000D01*
X107840000Y-19100000D02*
X107840000Y-19900000D01*
X110960000Y-19100000D02*
X110960000Y-19900000D01*
X110960000Y-19100000D02*
X110960000Y-18300000D01*
X107840000Y-19100000D02*
X107840000Y-17300000D01*
X77510000Y-19100000D02*
X77510000Y-19900000D01*
X77510000Y-19100000D02*
X77510000Y-18300000D01*
X74390000Y-19100000D02*
X74390000Y-17300000D01*
X74390000Y-19100000D02*
X74390000Y-19900000D01*
M02*
