M48
INCH,TZ
T1C0.0157
T2C0.0157
T3C0.0276
T4C0.0276
T5C0.0315
T6C0.0354
T7C0.0394
T8C0.0394
T9C0.0433
T10C0.0512
T11C0.0520
T12C0.0551
T13C0.0591
T14C0.1260
%
G90
G05
T1
X8071Y-30945
X9213Y-30079
X9391Y-59390
X9488Y-56358
X9764Y-20945
X9764Y-22677
X10177Y-64331
X10217Y-54793
X10394Y-65591
X10463Y-56270
X10541Y-59183
X10541Y-60719
X10846Y-65669
X10955Y-56180
X11181Y-29094
X11516Y-30020
X11693Y-57189
X11978Y-62028
X12087Y-57441
X12177Y-58100
X12323Y-35669
X12559Y-31260
X12677Y-30749
X12837Y-28782
X13071Y-50906
X13071Y-55405
X13100Y-62136
X13120Y-59360
X13145Y-27909
X13262Y-57067
X13295Y-56180
X13346Y-40000
X13386Y-29664
X13543Y-56535
X13560Y-60620
X13767Y-40224
X13884Y-65663
X13937Y-41732
X14055Y-9861
X14141Y-39850
X14242Y-55049
X14272Y-60719
X14390Y-26457
X14429Y-61648
X14606Y-28051
X14744Y-63415
X15138Y-57347
X15217Y-49232
X15276Y-55177
X15354Y-33228
X15472Y-29921
X15610Y-29350
X15630Y-27323
X15728Y-60638
X15807Y-46844
X15906Y-51929
X16063Y-26870
X16083Y-26299
X16141Y-24361
X16357Y-28504
X16378Y-41299
X16535Y-10039
X16535Y-62500
X16634Y-50354
X16811Y-58583
X16850Y-39606
X16916Y-35354
X16969Y-8701
X16983Y-33754
X17047Y-51122
X17101Y-26786
X17362Y-32067
X17362Y-49311
X17441Y-62766
X17520Y-52559
X17554Y-28982
X17638Y-33307
X17835Y-41614
X17835Y-47874
X17874Y-40512
X18007Y-33952
X18130Y-56693
X18248Y-36791
X18346Y-39606
X18524Y-35433
X18701Y-26457
X18740Y-31772
X18780Y-33937
X18858Y-37087
X19213Y-33484
X20006Y-31336
X20144Y-60638
X20433Y-19961
X20547Y-33615
X20551Y-33189
X20643Y-32756
X20699Y-46673
X20748Y-33976
X20827Y-34606
X20998Y-31336
X21063Y-28898
X21319Y-58829
X21407Y-62756
X21417Y-37087
X21575Y-38189
X22205Y-49311
X22283Y-59774
X22520Y-41575
X22539Y-61555
X22943Y-57303
X23081Y-62756
X23386Y-21378
X23465Y-35669
X23819Y-49311
X23858Y-28150
X23957Y-47028
X24252Y-14567
X24478Y-60638
X24567Y-32362
X24921Y-41063
X25000Y-12874
X25079Y-30787
X25138Y-32106
X25315Y-61378
X25413Y-35335
X25433Y-24134
X25433Y-43109
X25541Y-56772
X25650Y-52776
X25709Y-31220
X25935Y-60556
X26043Y-50904
X26142Y-32606
X26161Y-58504
X26299Y-43820
X26417Y-17992
X26496Y-60045
X26555Y-37835
X26575Y-43091
X26693Y-34705
X26711Y-31065
X26831Y-31890
X26850Y-20157
X26949Y-37598
X26969Y-35472
X27047Y-29862
X27047Y-42657
X27057Y-28760
X27067Y-30827
X27126Y-25433
X27165Y-30354
X27226Y-42224
X27283Y-48110
X27402Y-62136
X27441Y-13346
X27539Y-29843
X27566Y-41990
X27736Y-58465
X27835Y-28543
X27876Y-30659
X27963Y-41742
X28031Y-34606
X28051Y-35768
X28051Y-62776
X28169Y-33721
X28189Y-60236
X28209Y-36929
X28269Y-30217
X28307Y-53563
X28504Y-35803
X28504Y-63081
X28533Y-31998
X28543Y-31033
X28612Y-36545
X28760Y-54216
X28819Y-42205
X28858Y-61350
X28976Y-8583
X28996Y-44119
X28996Y-48643
X29075Y-32933
X29094Y-36890
X29114Y-55335
X29154Y-53622
X29331Y-51990
X29419Y-60157
X29488Y-35512
X29557Y-32293
X29941Y-58836
X29951Y-62697
X29990Y-60994
X30059Y-33110
X30098Y-56949
X30108Y-36978
X30246Y-57569
X30375Y-32461
X30571Y-42047
X30600Y-35797
X30699Y-32923
X30797Y-62470
X30866Y-7559
X31102Y-32067
X31112Y-36880
X31191Y-62205
X31378Y-22968
X31378Y-24079
X31467Y-62512
X31575Y-35236
X31614Y-41713
X31732Y-56634
X31791Y-48287
X31857Y-22968
X31969Y-24094
X31988Y-32697
X31998Y-35846
X32096Y-61388
X32116Y-38179
X32323Y-53602
X32392Y-31624
X32402Y-36890
X32480Y-24094
X32608Y-38159
X32657Y-48583
X32677Y-32795
X32785Y-36634
X33069Y-32362
X33096Y-38242
X33169Y-36280
X33248Y-51634
X33278Y-31614
X33287Y-25197
X33307Y-58836
X33593Y-62943
X33602Y-59747
X33661Y-38740
X33789Y-32382
X33957Y-61417
X33986Y-40079
X33986Y-41851
X34094Y-33306
X34094Y-51850
X34124Y-24035
X34193Y-50059
X34307Y-45177
X34321Y-25364
X34341Y-35925
X34360Y-36417
X34363Y-40463
X34656Y-34793
X34705Y-56791
X34724Y-45571
X34952Y-53917
X34959Y-34104
X34980Y-58012
X35098Y-33661
X35157Y-44587
X35256Y-59252
X35307Y-54204
X35432Y-33418
X35453Y-43642
X35469Y-52392
X35512Y-32646
X35671Y-39360
X35689Y-34400
X35709Y-26083
X35728Y-42815
X35866Y-38238
X35906Y-42421
X35969Y-35945
X36015Y-53583
X36260Y-53937
X36398Y-60315
X36457Y-36201
X36496Y-26358
X36496Y-64764
X36562Y-54311
X36575Y-31337
X36732Y-43248
X36752Y-36565
X36762Y-34774
X36812Y-35817
X36850Y-65156
X37047Y-42537
X37067Y-40374
X37154Y-62782
X37244Y-35679
X37303Y-61535
X37500Y-26003
X37500Y-38976
X37510Y-62500
X37539Y-43681
X37559Y-41157
X37598Y-31260
X37638Y-59252
X37667Y-35974
X37697Y-61339
X37726Y-38474
X37755Y-57500
X38110Y-61220
X38110Y-63112
X38159Y-41427
X38381Y-35335
X38465Y-66244
X38466Y-56004
X38504Y-25704
X38701Y-35000
X38740Y-38898
X38764Y-55492
X38780Y-45498
X39012Y-50492
X39012Y-54843
X39016Y-43268
X39016Y-47815
X39016Y-50000
X39035Y-42205
X39094Y-32348
X39134Y-45000
X39232Y-34921
X39370Y-23406
X39390Y-57992
X39390Y-61245
X39400Y-22726
X39409Y-59705
X39429Y-54567
X39567Y-42238
X39567Y-48060
X39843Y-23992
X39843Y-25108
X39882Y-55059
X39921Y-62155
X40079Y-39016
X40079Y-41693
X40276Y-37961
X40413Y-51939
X40512Y-19252
X40522Y-25108
X40531Y-31339
X40576Y-54878
X40647Y-34557
X40650Y-33671
X40709Y-32461
X40747Y-34958
X40747Y-42264
X40748Y-63012
X40906Y-48091
X40906Y-60059
X41024Y-55138
X41025Y-19921
X41080Y-54217
X41102Y-42677
X41240Y-43110
X41378Y-50059
X41398Y-48169
X41398Y-53091
X41398Y-56831
X41398Y-61245
X41457Y-33494
X41458Y-35197
X41685Y-55126
X41781Y-35669
X41890Y-49417
X41909Y-61906
X41988Y-30354
X41988Y-32972
X42047Y-34764
X42087Y-40295
X42136Y-36201
X42323Y-44979
X42352Y-49902
X42353Y-38317
X42362Y-19252
X42362Y-41142
X42382Y-45854
X42402Y-53110
X42421Y-49390
X42480Y-20000
X42490Y-38760
X42510Y-33681
X42569Y-61919
X42598Y-54705
X42894Y-35246
X42913Y-55630
X42953Y-58642
X43002Y-37618
X43012Y-31476
X43078Y-47510
X43100Y-25797
X43130Y-36575
X43130Y-53976
X43189Y-27362
X43189Y-31900
X43268Y-32323
X43268Y-55354
X43307Y-59421
X43425Y-52717
X43445Y-50827
X43465Y-52249
X43543Y-57032
X43545Y-27697
X43567Y-41412
X43570Y-39400
X43622Y-47470
X43652Y-22014
X43652Y-37205
X43681Y-33396
X43701Y-16063
X43701Y-45246
X43701Y-54882
X43702Y-18307
X43851Y-60283
X43858Y-14375
X43921Y-49291
X43923Y-28803
X43937Y-32421
X44037Y-33907
X44055Y-55138
X44055Y-58346
X44059Y-57598
X44065Y-33041
X44213Y-25197
X44252Y-48150
X44252Y-59626
X44282Y-39016
X44331Y-31496
X44370Y-17835
X44370Y-43543
X44528Y-62165
X44646Y-14843
X44724Y-49518
X44724Y-57717
X44783Y-53071
X44961Y-31220
X45177Y-49921
X45177Y-58051
X45207Y-31576
X45315Y-30039
X45335Y-54431
X45512Y-23976
X45512Y-38071
X45556Y-30792
X45591Y-64291
X45605Y-34936
X45669Y-38622
X45669Y-49665
X45748Y-61638
X45768Y-54431
X45858Y-33848
X46022Y-25792
X46024Y-37047
X46181Y-21573
X46181Y-49370
X46201Y-58012
X46673Y-58150
X46693Y-49272
X46713Y-52249
X46717Y-65533
X47047Y-21220
X47185Y-54679
X47274Y-66535
X47538Y-25143
X47559Y-43031
X47913Y-23215
X48012Y-59047
X48061Y-30182
X48209Y-47933
X48465Y-53504
X48504Y-58799
X48711Y-30256
X48740Y-60205
X48819Y-29070
X48976Y-64252
X49138Y-51378
X49138Y-52972
X49173Y-53917
X49252Y-60472
X49252Y-63346
X49370Y-21535
X49449Y-59047
X49567Y-28543
X49606Y-22285
X49685Y-21811
X49803Y-52500
X49882Y-63720
X49961Y-27126
X49980Y-59626
X50049Y-54177
X50157Y-24646
X50433Y-31699
X50512Y-57889
X50524Y-54431
X50650Y-49370
X50666Y-20340
X50795Y-59402
X50886Y-54232
X51161Y-51378
X51181Y-48268
X51216Y-20042
X51312Y-28228
X51378Y-57874
X51535Y-53110
X51555Y-49626
X51634Y-44882
X51693Y-30787
X51693Y-63307
X51890Y-57889
X52023Y-29016
X52126Y-49902
X52165Y-44488
X52244Y-30480
X52382Y-57992
X52402Y-53168
X52657Y-54429
X52677Y-30197
X52717Y-49724
X52776Y-64518
X52874Y-59157
X52894Y-53130
X53071Y-31513
X53130Y-50039
X53228Y-30236
X53287Y-48128
X53307Y-54679
X53425Y-21451
X53524Y-57720
X53819Y-44843
X53831Y-30182
X53879Y-60385
X54016Y-28268
X54106Y-27518
X54134Y-21451
X54213Y-50512
X54252Y-60564
X54272Y-44449
X54291Y-23504
X54360Y-18888
X54429Y-53425
X54429Y-54409
X54449Y-24173
X54488Y-50906
X54528Y-41078
X54528Y-49508
X54616Y-66752
X54685Y-21451
X54685Y-30197
X54686Y-29016
X54724Y-22756
X54744Y-57303
X54765Y-24606
X54803Y-50512
X54862Y-60591
X54882Y-28071
X54921Y-55413
X55079Y-28740
X55157Y-30591
X55197Y-25000
X55299Y-48937
X55319Y-57307
X55319Y-57720
X55433Y-22795
X55433Y-29055
X55433Y-43387
X55472Y-48228
X55650Y-59154
X55689Y-55011
X55689Y-60787
X55705Y-55672
X55709Y-30551
X55709Y-61220
X55813Y-65669
X55942Y-28976
X55984Y-30212
X55984Y-43575
X56063Y-62992
X56083Y-49508
X56083Y-57047
X56122Y-52165
X56181Y-20340
X56220Y-24724
X56220Y-28563
X56260Y-18976
X56437Y-54665
X56476Y-57472
X56535Y-24331
X56575Y-49850
X56575Y-61220
X56594Y-54272
X56713Y-47913
X56867Y-57337
X56870Y-52087
X56929Y-45531
X57008Y-59654
X57087Y-57720
X57106Y-49961
X57126Y-21451
X57165Y-55118
X57192Y-64044
X57480Y-49764
X57559Y-48130
X57579Y-55098
X57579Y-59984
X57598Y-52920
X57677Y-21457
X57697Y-25433
X57894Y-31516
X57933Y-54390
X57946Y-63205
X58071Y-47717
X58071Y-50197
X58406Y-45925
X58484Y-52323
X58504Y-62283
X58504Y-64213
X58563Y-50207
X58563Y-55039
X58583Y-48307
X58583Y-59298
X58819Y-54291
X58848Y-59980
X58858Y-26969
X58937Y-52087
X59075Y-57953
X59085Y-49419
X59094Y-44449
X59345Y-54080
X59350Y-55039
X59362Y-17839
X59528Y-47598
X59596Y-60650
X59646Y-48976
X59724Y-53524
X59803Y-47953
X59803Y-58622
X59882Y-62579
X59961Y-50630
X60000Y-43858
X60063Y-48907
X60118Y-41929
X60197Y-53524
X60271Y-55886
X60338Y-62591
X60393Y-40352
X60512Y-40748
X60519Y-57283
X60630Y-58465
X60724Y-46929
X60768Y-46339
X60827Y-62677
X60886Y-57529
X60945Y-41140
X60965Y-53209
X61063Y-52776
X61102Y-60354
X61181Y-63031
X61191Y-60846
X61221Y-50000
X61250Y-52071
X61299Y-59298
X61378Y-43425
X61417Y-54331
X61457Y-41978
X61457Y-66693
X61469Y-49478
X61496Y-55768
X61772Y-15591
X61791Y-59281
X61909Y-52854
X61969Y-13269
X62234Y-49734
X62283Y-48228
X62717Y-47795
X62756Y-54980
X62756Y-57529
X62795Y-39997
X63243Y-41392
X63248Y-50020
X63268Y-52972
X63268Y-57280
X63346Y-12165
X63583Y-36339
X63711Y-50079
X63799Y-59272
X64094Y-52657
X64213Y-43031
X64291Y-55118
X64291Y-57933
X64301Y-49577
X64569Y-59629
X64646Y-38189
X64764Y-43071
X64803Y-38608
X65118Y-53323
X65453Y-52224
X65512Y-53642
X65662Y-50652
X65728Y-48766
X65786Y-40335
X65929Y-45965
X65941Y-53819
X65984Y-44311
X66050Y-58349
X66220Y-50709
X66504Y-57602
X66555Y-40315
X66555Y-62111
X66621Y-54764
X66850Y-42874
X66850Y-53366
X66890Y-58996
X67047Y-52992
X67165Y-57933
X67365Y-52500
X67392Y-57032
X67579Y-50915
X67598Y-48386
X67614Y-45542
X67614Y-45955
X67614Y-49006
T2
X62291Y-22488
X63472Y-22488
T3
X6928Y-23522
X9409Y-37047
X9809Y-29798
X9918Y-65059
X10173Y-61578
X10472Y-44724
X11378Y-43031
X11496Y-46378
X11555Y-11201
X11693Y-19764
X11732Y-37047
X11732Y-52933
X11750Y-39128
X12264Y-11634
X12559Y-53209
X12601Y-42244
X12677Y-67264
X12874Y-37756
X12953Y-46496
X13150Y-23524
X13169Y-25669
X13225Y-47185
X13268Y-41811
X13622Y-38465
X13740Y-31142
X13819Y-44823
X13839Y-27047
X14534Y-31332
X14565Y-64438
X14606Y-40717
X14606Y-44724
X14644Y-43440
X14705Y-16849
X14724Y-15630
X14724Y-42756
X15020Y-64966
X15787Y-33898
X16024Y-32480
X16142Y-11024
X17323Y-45394
X17726Y-58554
X18287Y-60669
X18898Y-23524
X18905Y-44840
X19055Y-61488
X19646Y-39803
X20079Y-15531
X21063Y-21220
X21102Y-26866
X21713Y-46102
X22331Y-11662
X22638Y-39803
X23228Y-38543
X24291Y-45236
X24321Y-57638
X24528Y-40079
X26102Y-24921
X26181Y-27047
X26457Y-26378
X26732Y-47854
X26988Y-34193
X28474Y-58455
X28551Y-56673
X30059Y-47480
X31752Y-65000
X31890Y-6850
X33465Y-21471
X33465Y-61949
X34114Y-46573
X34526Y-61890
X34695Y-59783
X34882Y-47008
X35519Y-12637
X37913Y-11220
X37953Y-16063
X39370Y-19961
X40000Y-12795
X40827Y-14567
X41821Y-51693
X42004Y-26875
X42047Y-14370
X42461Y-27520
X42815Y-56476
X43130Y-61083
X43583Y-22717
X44055Y-7244
X44449Y-7913
X45907Y-13819
X46535Y-26142
X47126Y-29626
X47717Y-27087
X47736Y-51693
X48091Y-56476
X48484Y-48514
X48484Y-61083
X49016Y-42480
X49016Y-46358
X49724Y-19094
X49823Y-46220
X50157Y-47672
X50394Y-28406
X51007Y-24882
X53425Y-24685
X53425Y-56476
X53465Y-51772
X53937Y-14985
X54114Y-61102
X55197Y-17338
X55512Y-14567
X55866Y-47815
X56033Y-17235
X56260Y-66850
X56535Y-16063
X57589Y-46496
X58071Y-30748
X58440Y-18552
X58819Y-17977
X59033Y-51516
X59114Y-56476
X59173Y-61555
X59876Y-28447
X60827Y-24823
X63337Y-28907
X64094Y-35906
X64764Y-52067
X64843Y-56476
X64921Y-61555
X65630Y-55748
X67476Y-42756
X67480Y-61555
X67638Y-56476
X67835Y-51535
X67854Y-34252
X67874Y-35020
X68169Y-42126
T5
X7913Y-13256
X7913Y-16256
X8472Y-19272
X8472Y-20256
X12913Y-13256
X12913Y-16256
X21919Y-16179
X21919Y-19179
X23307Y-12205
X24291Y-12205
X26358Y-12520
X26919Y-16179
X26919Y-19179
X27343Y-12520
X29104Y-16159
X29104Y-19159
X33093Y-30787
X33465Y-22776
X34093Y-30787
X34104Y-16159
X34104Y-19159
X34449Y-22776
X35093Y-30787
X36093Y-30787
X36581Y-20770
X36581Y-23770
X37093Y-30787
X38093Y-30787
X39093Y-30787
X40093Y-30787
X41093Y-30787
X41581Y-20770
X41581Y-23770
X45209Y-11642
X45209Y-12626
X45565Y-16498
X45565Y-19498
X50565Y-16498
X50565Y-19498
X52746Y-16502
X52746Y-19502
X53933Y-13075
X54917Y-13075
X57746Y-16502
X57746Y-19502
X59480Y-22858
X60858Y-22858
T6
X30148Y-11743
X30148Y-12993
X31398Y-11743
X31398Y-12993
X32648Y-11743
X32648Y-12993
X36447Y-12726
X36447Y-13976
X36447Y-15226
X37697Y-12726
X37697Y-13976
X37697Y-15226
T7
X9665Y-24961
X10650Y-28327
X12559Y-22598
X15643Y-14698
X16358Y-16063
X19134Y-22717
X19469Y-28209
X24449Y-27559
X27372Y-22608
X27539Y-18179
X30935Y-30728
X31594Y-20232
X44567Y-30630
X47411Y-28287
X49370Y-15866
X53406Y-28839
X56890Y-28799
X59843Y-38228
X60039Y-26654
X61535Y-19449
X62362Y-38228
X63150Y-30984
X66811Y-34134
X67638Y-24882
X67835Y-37697
T8
X7581Y-25787
X8581Y-25787
X9197Y-35906
X9581Y-25787
X10197Y-33906
X11197Y-35906
X11343Y-9284
X11888Y-8165
X12433Y-9284
X12978Y-8165
X13236Y-35906
X13524Y-9284
X14069Y-8165
X14236Y-33906
X14614Y-9284
X14900Y-51945
X14900Y-56045
X14900Y-60145
X15159Y-8165
X15236Y-35906
X15705Y-9284
X15900Y-49945
X15900Y-54045
X15900Y-58145
X16900Y-51945
X16900Y-56045
X16900Y-60145
X19600Y-51945
X19600Y-56045
X19600Y-60145
X19866Y-43289
X20600Y-49945
X20600Y-54045
X20600Y-58145
X20866Y-41289
X21600Y-51945
X21600Y-56045
X21600Y-60145
X21866Y-43289
X21913Y-35061
X22913Y-33061
X23913Y-35061
X24300Y-51945
X24445Y-9291
X24990Y-8173
X25300Y-49945
X25535Y-9291
X26081Y-8173
X26300Y-51945
X26626Y-9291
X27171Y-8173
X27717Y-9291
X28262Y-8173
X28496Y-28451
X28496Y-29451
X28807Y-9291
X29496Y-28451
X29496Y-29451
X30496Y-28451
X30496Y-29451
X31496Y-28451
X31496Y-29451
X32496Y-28451
X32496Y-29451
X33496Y-28451
X33496Y-29451
X34496Y-28451
X34496Y-29451
X35496Y-28451
X35496Y-29451
X36496Y-28451
X36496Y-29451
X37496Y-28451
X37496Y-29451
X37551Y-9291
X38096Y-8173
X38496Y-28451
X38496Y-29451
X38642Y-9291
X39187Y-8173
X39496Y-28451
X39496Y-29451
X39732Y-9291
X40278Y-8173
X40496Y-28451
X40496Y-29451
X40823Y-9291
X41368Y-8173
X41496Y-28451
X41496Y-29451
X41913Y-9291
X42496Y-28451
X42496Y-29451
X57295Y-65012
X57295Y-66012
X58295Y-65012
X58295Y-66012
X59504Y-64060
X59504Y-65060
X59504Y-66060
X60504Y-64060
X60504Y-65060
X60504Y-66060
X64016Y-66811
X65787Y-66811
T9
X39161Y-64724
X39161Y-66724
X40161Y-64724
X41161Y-64724
X41161Y-66724
X42760Y-64724
X42760Y-66724
X43760Y-64724
X44760Y-64724
X44760Y-66724
X46343Y-63732
X46343Y-64732
X46343Y-66732
X47343Y-63732
X47343Y-64732
X48343Y-63732
X48343Y-64732
X48343Y-66732
X49945Y-64717
X49945Y-66717
X50945Y-64717
X51945Y-64717
X51945Y-66717
X53528Y-63732
X53528Y-64732
X53528Y-66732
X54528Y-63732
X54528Y-64732
X55528Y-63732
X55528Y-64732
X55528Y-66732
X60307Y-29976
X61307Y-29976
X62307Y-29976
X64669Y-25815
X65669Y-25815
X66669Y-25815
T10
X16319Y-66516
X18287Y-66516
X20256Y-66516
X24043Y-66516
X26012Y-66516
X27980Y-66516
X31791Y-66516
X33760Y-66516
X35728Y-66516
X63524Y-65827
X66280Y-65827
T11
X47472Y-11106
X48472Y-12106
X49472Y-7106
X50472Y-11106
X51472Y-7106
X52472Y-12106
X53472Y-11106
X56169Y-12110
X57169Y-11110
X58169Y-7110
X58169Y-12110
X59169Y-11110
X59169Y-13110
X60169Y-7110
X60169Y-12110
X61169Y-11110
X62169Y-12110
T12
X14726Y-13114
X14726Y-21814
X17676Y-11864
X17676Y-14364
X17676Y-21814
X21501Y-22186
X22751Y-25136
X24001Y-22186
X31451Y-22186
X31451Y-25136
T13
X65724Y-15366
X65724Y-24264
T14
X8602Y-9165
X18445Y-9165
X21705Y-9173
X31547Y-9173
X34811Y-9173
X44654Y-9173
T4
G00X28898Y-11987
M15
G01X28898Y-12498
M16
G05
G00X33898Y-11987
M15
G01X33898Y-12498
M16
G05
G00X36691Y-11476
M15
G01X37203Y-11476
M16
G05
G00X36691Y-16476
M15
G01X37203Y-16476
M16
G05
T5
G00X11496Y-64124
M15
G01X11496Y-63927
M16
G05
G00X13307Y-64124
M15
G01X13307Y-63927
M16
G05
T8
G00X11319Y-67037
M15
G01X11319Y-66919
M16
G05
G00X13484Y-67037
M15
G01X13484Y-66919
M16
G05
G00X63764Y-10902
M15
G01X63764Y-10035
M16
G05
G00X66087Y-9130
M15
G01X65220Y-9130
M16
G05
G00X66165Y-11610
M15
G01X65142Y-11610
M16
G05
T0
M30
