%FSLAX45Y45*%
G04 Gerber Fmt 4.5, Leading zero omitted, Abs format (unit mm)*
G04 Created by KiCad (PCBNEW 6.0.2+dfsg-1) date 2023-05-07 21:41:58*
%MOMM*%
%LPD*%
G01*
G04 APERTURE LIST*
%TA.AperFunction,Profile*%
%ADD10C,0.100000*%
%TD*%
%ADD11C,0.200000*%
%ADD12C,0.110000*%
%ADD13C,0.279400*%
%ADD14C,0.320000*%
%ADD15C,0.350000*%
G04 APERTURE END LIST*
D10*
X1584000Y-1528000D02*
X17512000Y-1528000D01*
X17512000Y-1528000D02*
X17512000Y-17409000D01*
X17512000Y-17409000D02*
X1584000Y-17409000D01*
X1584000Y-17409000D02*
X1584000Y-1528000D01*
D11*
D12*
X2845000Y-16607500D02*
X2955000Y-16717500D01*
X2955000Y-16607500D02*
X2845000Y-16717500D01*
X3345000Y-16607500D02*
X3455000Y-16717500D01*
X3455000Y-16607500D02*
X3345000Y-16717500D01*
D13*
X12197700Y-2313000D02*
G75*
G03*
X12197700Y-2313000I-139700J0D01*
G01*
X13721700Y-2313000D02*
G75*
G03*
X13721700Y-2313000I-139700J0D01*
G01*
X14406700Y-2314000D02*
G75*
G03*
X14406700Y-2314000I-139700J0D01*
G01*
X15930700Y-2314000D02*
G75*
G03*
X15930700Y-2314000I-139700J0D01*
G01*
D14*
X7045000Y-11310000D02*
X7045000Y-11630000D01*
X6885000Y-11470000D02*
X7205000Y-11470000D01*
X14280000Y-9410000D02*
X14280000Y-9730000D01*
X14120000Y-9570000D02*
X14440000Y-9570000D01*
D15*
X15695745Y-9403745D02*
X15695745Y-9156255D01*
X15448255Y-9156255D01*
X15448255Y-9403745D01*
X15695745Y-9403745D01*
X16803745Y-8346745D02*
X16803745Y-8099255D01*
X16556255Y-8099255D01*
X16556255Y-8346745D01*
X16803745Y-8346745D01*
D11*
X1836619Y-17724476D02*
X1836619Y-17524476D01*
X1884238Y-17524476D01*
X1912809Y-17534000D01*
X1931857Y-17553048D01*
X1941381Y-17572095D01*
X1950905Y-17610190D01*
X1950905Y-17638762D01*
X1941381Y-17676857D01*
X1931857Y-17695905D01*
X1912809Y-17714952D01*
X1884238Y-17724476D01*
X1836619Y-17724476D01*
X2036619Y-17724476D02*
X2036619Y-17591143D01*
X2036619Y-17629238D02*
X2046143Y-17610190D01*
X2055667Y-17600667D01*
X2074714Y-17591143D01*
X2093762Y-17591143D01*
X2160429Y-17724476D02*
X2160429Y-17591143D01*
X2160429Y-17524476D02*
X2150905Y-17534000D01*
X2160429Y-17543524D01*
X2169952Y-17534000D01*
X2160429Y-17524476D01*
X2160429Y-17543524D01*
X2284238Y-17724476D02*
X2265190Y-17714952D01*
X2255667Y-17695905D01*
X2255667Y-17524476D01*
X2389000Y-17724476D02*
X2369952Y-17714952D01*
X2360429Y-17695905D01*
X2360429Y-17524476D01*
X2617571Y-17724476D02*
X2617571Y-17524476D01*
X2684238Y-17667333D01*
X2750905Y-17524476D01*
X2750905Y-17724476D01*
X2931857Y-17724476D02*
X2931857Y-17619714D01*
X2922333Y-17600667D01*
X2903286Y-17591143D01*
X2865190Y-17591143D01*
X2846143Y-17600667D01*
X2931857Y-17714952D02*
X2912809Y-17724476D01*
X2865190Y-17724476D01*
X2846143Y-17714952D01*
X2836619Y-17695905D01*
X2836619Y-17676857D01*
X2846143Y-17657810D01*
X2865190Y-17648286D01*
X2912809Y-17648286D01*
X2931857Y-17638762D01*
X3027095Y-17591143D02*
X3027095Y-17791143D01*
X3027095Y-17600667D02*
X3046143Y-17591143D01*
X3084238Y-17591143D01*
X3103286Y-17600667D01*
X3112809Y-17610190D01*
X3122333Y-17629238D01*
X3122333Y-17686381D01*
X3112809Y-17705429D01*
X3103286Y-17714952D01*
X3084238Y-17724476D01*
X3046143Y-17724476D01*
X3027095Y-17714952D01*
X3208048Y-17705429D02*
X3217571Y-17714952D01*
X3208048Y-17724476D01*
X3198524Y-17714952D01*
X3208048Y-17705429D01*
X3208048Y-17724476D01*
X3208048Y-17600667D02*
X3217571Y-17610190D01*
X3208048Y-17619714D01*
X3198524Y-17610190D01*
X3208048Y-17600667D01*
X3208048Y-17619714D01*
D12*
X1469000Y-17999000D02*
X1579000Y-18109000D01*
X1579000Y-17999000D02*
X1469000Y-18109000D01*
D11*
X1941381Y-18144476D02*
X1827095Y-18144476D01*
X1884238Y-18144476D02*
X1884238Y-17944476D01*
X1865190Y-17973048D01*
X1846143Y-17992095D01*
X1827095Y-18001619D01*
X2027095Y-18125429D02*
X2036619Y-18134952D01*
X2027095Y-18144476D01*
X2017571Y-18134952D01*
X2027095Y-18125429D01*
X2027095Y-18144476D01*
X2227095Y-18144476D02*
X2112810Y-18144476D01*
X2169952Y-18144476D02*
X2169952Y-17944476D01*
X2150905Y-17973048D01*
X2131857Y-17992095D01*
X2112810Y-18001619D01*
X2350905Y-17944476D02*
X2369952Y-17944476D01*
X2389000Y-17954000D01*
X2398524Y-17963524D01*
X2408048Y-17982571D01*
X2417571Y-18020667D01*
X2417571Y-18068286D01*
X2408048Y-18106381D01*
X2398524Y-18125429D01*
X2389000Y-18134952D01*
X2369952Y-18144476D01*
X2350905Y-18144476D01*
X2331857Y-18134952D01*
X2322333Y-18125429D01*
X2312810Y-18106381D01*
X2303286Y-18068286D01*
X2303286Y-18020667D01*
X2312810Y-17982571D01*
X2322333Y-17963524D01*
X2331857Y-17954000D01*
X2350905Y-17944476D01*
X2541381Y-17944476D02*
X2560429Y-17944476D01*
X2579476Y-17954000D01*
X2589000Y-17963524D01*
X2598524Y-17982571D01*
X2608048Y-18020667D01*
X2608048Y-18068286D01*
X2598524Y-18106381D01*
X2589000Y-18125429D01*
X2579476Y-18134952D01*
X2560429Y-18144476D01*
X2541381Y-18144476D01*
X2522333Y-18134952D01*
X2512810Y-18125429D01*
X2503286Y-18106381D01*
X2493762Y-18068286D01*
X2493762Y-18020667D01*
X2503286Y-17982571D01*
X2512810Y-17963524D01*
X2522333Y-17954000D01*
X2541381Y-17944476D01*
X2693762Y-18144476D02*
X2693762Y-18011143D01*
X2693762Y-18030190D02*
X2703286Y-18020667D01*
X2722333Y-18011143D01*
X2750905Y-18011143D01*
X2769952Y-18020667D01*
X2779476Y-18039714D01*
X2779476Y-18144476D01*
X2779476Y-18039714D02*
X2789000Y-18020667D01*
X2808048Y-18011143D01*
X2836619Y-18011143D01*
X2855667Y-18020667D01*
X2865190Y-18039714D01*
X2865190Y-18144476D01*
X2960428Y-18144476D02*
X2960428Y-18011143D01*
X2960428Y-18030190D02*
X2969952Y-18020667D01*
X2989000Y-18011143D01*
X3017571Y-18011143D01*
X3036619Y-18020667D01*
X3046143Y-18039714D01*
X3046143Y-18144476D01*
X3046143Y-18039714D02*
X3055667Y-18020667D01*
X3074714Y-18011143D01*
X3103286Y-18011143D01*
X3122333Y-18020667D01*
X3131857Y-18039714D01*
X3131857Y-18144476D01*
X3522333Y-17934952D02*
X3350905Y-18192095D01*
X3779476Y-17944476D02*
X3798524Y-17944476D01*
X3817571Y-17954000D01*
X3827095Y-17963524D01*
X3836619Y-17982571D01*
X3846143Y-18020667D01*
X3846143Y-18068286D01*
X3836619Y-18106381D01*
X3827095Y-18125429D01*
X3817571Y-18134952D01*
X3798524Y-18144476D01*
X3779476Y-18144476D01*
X3760428Y-18134952D01*
X3750905Y-18125429D01*
X3741381Y-18106381D01*
X3731857Y-18068286D01*
X3731857Y-18020667D01*
X3741381Y-17982571D01*
X3750905Y-17963524D01*
X3760428Y-17954000D01*
X3779476Y-17944476D01*
X3931857Y-18125429D02*
X3941381Y-18134952D01*
X3931857Y-18144476D01*
X3922333Y-18134952D01*
X3931857Y-18125429D01*
X3931857Y-18144476D01*
X4065190Y-17944476D02*
X4084238Y-17944476D01*
X4103286Y-17954000D01*
X4112809Y-17963524D01*
X4122333Y-17982571D01*
X4131857Y-18020667D01*
X4131857Y-18068286D01*
X4122333Y-18106381D01*
X4112809Y-18125429D01*
X4103286Y-18134952D01*
X4084238Y-18144476D01*
X4065190Y-18144476D01*
X4046143Y-18134952D01*
X4036619Y-18125429D01*
X4027095Y-18106381D01*
X4017571Y-18068286D01*
X4017571Y-18020667D01*
X4027095Y-17982571D01*
X4036619Y-17963524D01*
X4046143Y-17954000D01*
X4065190Y-17944476D01*
X4303286Y-18011143D02*
X4303286Y-18144476D01*
X4255667Y-17934952D02*
X4208048Y-18077810D01*
X4331857Y-18077810D01*
X4389000Y-17944476D02*
X4512810Y-17944476D01*
X4446143Y-18020667D01*
X4474714Y-18020667D01*
X4493762Y-18030190D01*
X4503286Y-18039714D01*
X4512810Y-18058762D01*
X4512810Y-18106381D01*
X4503286Y-18125429D01*
X4493762Y-18134952D01*
X4474714Y-18144476D01*
X4417571Y-18144476D01*
X4398524Y-18134952D01*
X4389000Y-18125429D01*
X4579476Y-17944476D02*
X4703286Y-17944476D01*
X4636619Y-18020667D01*
X4665190Y-18020667D01*
X4684238Y-18030190D01*
X4693762Y-18039714D01*
X4703286Y-18058762D01*
X4703286Y-18106381D01*
X4693762Y-18125429D01*
X4684238Y-18134952D01*
X4665190Y-18144476D01*
X4608048Y-18144476D01*
X4589000Y-18134952D01*
X4579476Y-18125429D01*
X4779476Y-17944476D02*
X4779476Y-17982571D01*
X4855667Y-17944476D02*
X4855667Y-17982571D01*
X5150905Y-18220667D02*
X5141381Y-18211143D01*
X5122333Y-18182571D01*
X5112810Y-18163524D01*
X5103286Y-18134952D01*
X5093762Y-18087333D01*
X5093762Y-18049238D01*
X5103286Y-18001619D01*
X5112810Y-17973048D01*
X5122333Y-17954000D01*
X5141381Y-17925429D01*
X5150905Y-17915905D01*
X5217571Y-17963524D02*
X5227095Y-17954000D01*
X5246143Y-17944476D01*
X5293762Y-17944476D01*
X5312810Y-17954000D01*
X5322333Y-17963524D01*
X5331857Y-17982571D01*
X5331857Y-18001619D01*
X5322333Y-18030190D01*
X5208048Y-18144476D01*
X5331857Y-18144476D01*
X5569952Y-18144476D02*
X5569952Y-17944476D01*
X5655667Y-18144476D02*
X5655667Y-18039714D01*
X5646143Y-18020667D01*
X5627095Y-18011143D01*
X5598524Y-18011143D01*
X5579476Y-18020667D01*
X5569952Y-18030190D01*
X5779476Y-18144476D02*
X5760428Y-18134952D01*
X5750905Y-18125429D01*
X5741381Y-18106381D01*
X5741381Y-18049238D01*
X5750905Y-18030190D01*
X5760428Y-18020667D01*
X5779476Y-18011143D01*
X5808048Y-18011143D01*
X5827095Y-18020667D01*
X5836619Y-18030190D01*
X5846143Y-18049238D01*
X5846143Y-18106381D01*
X5836619Y-18125429D01*
X5827095Y-18134952D01*
X5808048Y-18144476D01*
X5779476Y-18144476D01*
X5960428Y-18144476D02*
X5941381Y-18134952D01*
X5931857Y-18115905D01*
X5931857Y-17944476D01*
X6112809Y-18134952D02*
X6093762Y-18144476D01*
X6055667Y-18144476D01*
X6036619Y-18134952D01*
X6027095Y-18115905D01*
X6027095Y-18039714D01*
X6036619Y-18020667D01*
X6055667Y-18011143D01*
X6093762Y-18011143D01*
X6112809Y-18020667D01*
X6122333Y-18039714D01*
X6122333Y-18058762D01*
X6027095Y-18077810D01*
X6198524Y-18134952D02*
X6217571Y-18144476D01*
X6255667Y-18144476D01*
X6274714Y-18134952D01*
X6284238Y-18115905D01*
X6284238Y-18106381D01*
X6274714Y-18087333D01*
X6255667Y-18077810D01*
X6227095Y-18077810D01*
X6208048Y-18068286D01*
X6198524Y-18049238D01*
X6198524Y-18039714D01*
X6208048Y-18020667D01*
X6227095Y-18011143D01*
X6255667Y-18011143D01*
X6274714Y-18020667D01*
X6350905Y-18220667D02*
X6360428Y-18211143D01*
X6379476Y-18182571D01*
X6389000Y-18163524D01*
X6398524Y-18134952D01*
X6408048Y-18087333D01*
X6408048Y-18049238D01*
X6398524Y-18001619D01*
X6389000Y-17973048D01*
X6379476Y-17954000D01*
X6360428Y-17925429D01*
X6350905Y-17915905D01*
X6712809Y-18220667D02*
X6703286Y-18211143D01*
X6684238Y-18182571D01*
X6674714Y-18163524D01*
X6665190Y-18134952D01*
X6655667Y-18087333D01*
X6655667Y-18049238D01*
X6665190Y-18001619D01*
X6674714Y-17973048D01*
X6684238Y-17954000D01*
X6703286Y-17925429D01*
X6712809Y-17915905D01*
X6789000Y-18011143D02*
X6789000Y-18144476D01*
X6789000Y-18030190D02*
X6798524Y-18020667D01*
X6817571Y-18011143D01*
X6846143Y-18011143D01*
X6865190Y-18020667D01*
X6874714Y-18039714D01*
X6874714Y-18144476D01*
X6998524Y-18144476D02*
X6979476Y-18134952D01*
X6969952Y-18125429D01*
X6960428Y-18106381D01*
X6960428Y-18049238D01*
X6969952Y-18030190D01*
X6979476Y-18020667D01*
X6998524Y-18011143D01*
X7027095Y-18011143D01*
X7046143Y-18020667D01*
X7055667Y-18030190D01*
X7065190Y-18049238D01*
X7065190Y-18106381D01*
X7055667Y-18125429D01*
X7046143Y-18134952D01*
X7027095Y-18144476D01*
X6998524Y-18144476D01*
X7122333Y-18011143D02*
X7198524Y-18011143D01*
X7150905Y-17944476D02*
X7150905Y-18115905D01*
X7160428Y-18134952D01*
X7179476Y-18144476D01*
X7198524Y-18144476D01*
X7417571Y-18011143D02*
X7417571Y-18211143D01*
X7417571Y-18020667D02*
X7436619Y-18011143D01*
X7474714Y-18011143D01*
X7493762Y-18020667D01*
X7503286Y-18030190D01*
X7512809Y-18049238D01*
X7512809Y-18106381D01*
X7503286Y-18125429D01*
X7493762Y-18134952D01*
X7474714Y-18144476D01*
X7436619Y-18144476D01*
X7417571Y-18134952D01*
X7627095Y-18144476D02*
X7608048Y-18134952D01*
X7598524Y-18115905D01*
X7598524Y-17944476D01*
X7789000Y-18144476D02*
X7789000Y-18039714D01*
X7779476Y-18020667D01*
X7760428Y-18011143D01*
X7722333Y-18011143D01*
X7703286Y-18020667D01*
X7789000Y-18134952D02*
X7769952Y-18144476D01*
X7722333Y-18144476D01*
X7703286Y-18134952D01*
X7693762Y-18115905D01*
X7693762Y-18096857D01*
X7703286Y-18077810D01*
X7722333Y-18068286D01*
X7769952Y-18068286D01*
X7789000Y-18058762D01*
X7855667Y-18011143D02*
X7931857Y-18011143D01*
X7884238Y-17944476D02*
X7884238Y-18115905D01*
X7893762Y-18134952D01*
X7912809Y-18144476D01*
X7931857Y-18144476D01*
X8074714Y-18134952D02*
X8055667Y-18144476D01*
X8017571Y-18144476D01*
X7998524Y-18134952D01*
X7989000Y-18115905D01*
X7989000Y-18039714D01*
X7998524Y-18020667D01*
X8017571Y-18011143D01*
X8055667Y-18011143D01*
X8074714Y-18020667D01*
X8084238Y-18039714D01*
X8084238Y-18058762D01*
X7989000Y-18077810D01*
X8255667Y-18144476D02*
X8255667Y-17944476D01*
X8255667Y-18134952D02*
X8236619Y-18144476D01*
X8198524Y-18144476D01*
X8179476Y-18134952D01*
X8169952Y-18125429D01*
X8160428Y-18106381D01*
X8160428Y-18049238D01*
X8169952Y-18030190D01*
X8179476Y-18020667D01*
X8198524Y-18011143D01*
X8236619Y-18011143D01*
X8255667Y-18020667D01*
X8331857Y-18220667D02*
X8341381Y-18211143D01*
X8360428Y-18182571D01*
X8369952Y-18163524D01*
X8379476Y-18134952D01*
X8389000Y-18087333D01*
X8389000Y-18049238D01*
X8379476Y-18001619D01*
X8369952Y-17973048D01*
X8360428Y-17954000D01*
X8341381Y-17925429D01*
X8331857Y-17915905D01*
X1579000Y-18318000D02*
G75*
G03*
X1579000Y-18318000I-100000J0D01*
G01*
X1827095Y-18227524D02*
X1836619Y-18218000D01*
X1855667Y-18208476D01*
X1903286Y-18208476D01*
X1922333Y-18218000D01*
X1931857Y-18227524D01*
X1941381Y-18246571D01*
X1941381Y-18265619D01*
X1931857Y-18294190D01*
X1817571Y-18408476D01*
X1941381Y-18408476D01*
X2027095Y-18389429D02*
X2036619Y-18398952D01*
X2027095Y-18408476D01*
X2017571Y-18398952D01*
X2027095Y-18389429D01*
X2027095Y-18408476D01*
X2103286Y-18208476D02*
X2236619Y-18208476D01*
X2150905Y-18408476D01*
X2322333Y-18408476D02*
X2360429Y-18408476D01*
X2379476Y-18398952D01*
X2389000Y-18389429D01*
X2408048Y-18360857D01*
X2417571Y-18322762D01*
X2417571Y-18246571D01*
X2408048Y-18227524D01*
X2398524Y-18218000D01*
X2379476Y-18208476D01*
X2341381Y-18208476D01*
X2322333Y-18218000D01*
X2312810Y-18227524D01*
X2303286Y-18246571D01*
X2303286Y-18294190D01*
X2312810Y-18313238D01*
X2322333Y-18322762D01*
X2341381Y-18332286D01*
X2379476Y-18332286D01*
X2398524Y-18322762D01*
X2408048Y-18313238D01*
X2417571Y-18294190D01*
X2589000Y-18275143D02*
X2589000Y-18408476D01*
X2541381Y-18198952D02*
X2493762Y-18341810D01*
X2617571Y-18341810D01*
X2693762Y-18408476D02*
X2693762Y-18275143D01*
X2693762Y-18294190D02*
X2703286Y-18284667D01*
X2722333Y-18275143D01*
X2750905Y-18275143D01*
X2769952Y-18284667D01*
X2779476Y-18303714D01*
X2779476Y-18408476D01*
X2779476Y-18303714D02*
X2789000Y-18284667D01*
X2808048Y-18275143D01*
X2836619Y-18275143D01*
X2855667Y-18284667D01*
X2865190Y-18303714D01*
X2865190Y-18408476D01*
X2960428Y-18408476D02*
X2960428Y-18275143D01*
X2960428Y-18294190D02*
X2969952Y-18284667D01*
X2989000Y-18275143D01*
X3017571Y-18275143D01*
X3036619Y-18284667D01*
X3046143Y-18303714D01*
X3046143Y-18408476D01*
X3046143Y-18303714D02*
X3055667Y-18284667D01*
X3074714Y-18275143D01*
X3103286Y-18275143D01*
X3122333Y-18284667D01*
X3131857Y-18303714D01*
X3131857Y-18408476D01*
X3522333Y-18198952D02*
X3350905Y-18456095D01*
X3779476Y-18208476D02*
X3798524Y-18208476D01*
X3817571Y-18218000D01*
X3827095Y-18227524D01*
X3836619Y-18246571D01*
X3846143Y-18284667D01*
X3846143Y-18332286D01*
X3836619Y-18370381D01*
X3827095Y-18389429D01*
X3817571Y-18398952D01*
X3798524Y-18408476D01*
X3779476Y-18408476D01*
X3760428Y-18398952D01*
X3750905Y-18389429D01*
X3741381Y-18370381D01*
X3731857Y-18332286D01*
X3731857Y-18284667D01*
X3741381Y-18246571D01*
X3750905Y-18227524D01*
X3760428Y-18218000D01*
X3779476Y-18208476D01*
X3931857Y-18389429D02*
X3941381Y-18398952D01*
X3931857Y-18408476D01*
X3922333Y-18398952D01*
X3931857Y-18389429D01*
X3931857Y-18408476D01*
X4131857Y-18408476D02*
X4017571Y-18408476D01*
X4074714Y-18408476D02*
X4074714Y-18208476D01*
X4055667Y-18237048D01*
X4036619Y-18256095D01*
X4017571Y-18265619D01*
X4322333Y-18408476D02*
X4208048Y-18408476D01*
X4265190Y-18408476D02*
X4265190Y-18208476D01*
X4246143Y-18237048D01*
X4227095Y-18256095D01*
X4208048Y-18265619D01*
X4446143Y-18208476D02*
X4465190Y-18208476D01*
X4484238Y-18218000D01*
X4493762Y-18227524D01*
X4503286Y-18246571D01*
X4512810Y-18284667D01*
X4512810Y-18332286D01*
X4503286Y-18370381D01*
X4493762Y-18389429D01*
X4484238Y-18398952D01*
X4465190Y-18408476D01*
X4446143Y-18408476D01*
X4427095Y-18398952D01*
X4417571Y-18389429D01*
X4408048Y-18370381D01*
X4398524Y-18332286D01*
X4398524Y-18284667D01*
X4408048Y-18246571D01*
X4417571Y-18227524D01*
X4427095Y-18218000D01*
X4446143Y-18208476D01*
X4636619Y-18208476D02*
X4655667Y-18208476D01*
X4674714Y-18218000D01*
X4684238Y-18227524D01*
X4693762Y-18246571D01*
X4703286Y-18284667D01*
X4703286Y-18332286D01*
X4693762Y-18370381D01*
X4684238Y-18389429D01*
X4674714Y-18398952D01*
X4655667Y-18408476D01*
X4636619Y-18408476D01*
X4617571Y-18398952D01*
X4608048Y-18389429D01*
X4598524Y-18370381D01*
X4589000Y-18332286D01*
X4589000Y-18284667D01*
X4598524Y-18246571D01*
X4608048Y-18227524D01*
X4617571Y-18218000D01*
X4636619Y-18208476D01*
X4779476Y-18208476D02*
X4779476Y-18246571D01*
X4855667Y-18208476D02*
X4855667Y-18246571D01*
X5150905Y-18484667D02*
X5141381Y-18475143D01*
X5122333Y-18446571D01*
X5112810Y-18427524D01*
X5103286Y-18398952D01*
X5093762Y-18351333D01*
X5093762Y-18313238D01*
X5103286Y-18265619D01*
X5112810Y-18237048D01*
X5122333Y-18218000D01*
X5141381Y-18189429D01*
X5150905Y-18179905D01*
X5312810Y-18275143D02*
X5312810Y-18408476D01*
X5265190Y-18198952D02*
X5217571Y-18341810D01*
X5341381Y-18341810D01*
X5569952Y-18408476D02*
X5569952Y-18208476D01*
X5655667Y-18408476D02*
X5655667Y-18303714D01*
X5646143Y-18284667D01*
X5627095Y-18275143D01*
X5598524Y-18275143D01*
X5579476Y-18284667D01*
X5569952Y-18294190D01*
X5779476Y-18408476D02*
X5760428Y-18398952D01*
X5750905Y-18389429D01*
X5741381Y-18370381D01*
X5741381Y-18313238D01*
X5750905Y-18294190D01*
X5760428Y-18284667D01*
X5779476Y-18275143D01*
X5808048Y-18275143D01*
X5827095Y-18284667D01*
X5836619Y-18294190D01*
X5846143Y-18313238D01*
X5846143Y-18370381D01*
X5836619Y-18389429D01*
X5827095Y-18398952D01*
X5808048Y-18408476D01*
X5779476Y-18408476D01*
X5960428Y-18408476D02*
X5941381Y-18398952D01*
X5931857Y-18379905D01*
X5931857Y-18208476D01*
X6112809Y-18398952D02*
X6093762Y-18408476D01*
X6055667Y-18408476D01*
X6036619Y-18398952D01*
X6027095Y-18379905D01*
X6027095Y-18303714D01*
X6036619Y-18284667D01*
X6055667Y-18275143D01*
X6093762Y-18275143D01*
X6112809Y-18284667D01*
X6122333Y-18303714D01*
X6122333Y-18322762D01*
X6027095Y-18341810D01*
X6198524Y-18398952D02*
X6217571Y-18408476D01*
X6255667Y-18408476D01*
X6274714Y-18398952D01*
X6284238Y-18379905D01*
X6284238Y-18370381D01*
X6274714Y-18351333D01*
X6255667Y-18341810D01*
X6227095Y-18341810D01*
X6208048Y-18332286D01*
X6198524Y-18313238D01*
X6198524Y-18303714D01*
X6208048Y-18284667D01*
X6227095Y-18275143D01*
X6255667Y-18275143D01*
X6274714Y-18284667D01*
X6350905Y-18484667D02*
X6360428Y-18475143D01*
X6379476Y-18446571D01*
X6389000Y-18427524D01*
X6398524Y-18398952D01*
X6408048Y-18351333D01*
X6408048Y-18313238D01*
X6398524Y-18265619D01*
X6389000Y-18237048D01*
X6379476Y-18218000D01*
X6360428Y-18189429D01*
X6350905Y-18179905D01*
X6712809Y-18484667D02*
X6703286Y-18475143D01*
X6684238Y-18446571D01*
X6674714Y-18427524D01*
X6665190Y-18398952D01*
X6655667Y-18351333D01*
X6655667Y-18313238D01*
X6665190Y-18265619D01*
X6674714Y-18237048D01*
X6684238Y-18218000D01*
X6703286Y-18189429D01*
X6712809Y-18179905D01*
X6789000Y-18275143D02*
X6789000Y-18408476D01*
X6789000Y-18294190D02*
X6798524Y-18284667D01*
X6817571Y-18275143D01*
X6846143Y-18275143D01*
X6865190Y-18284667D01*
X6874714Y-18303714D01*
X6874714Y-18408476D01*
X6998524Y-18408476D02*
X6979476Y-18398952D01*
X6969952Y-18389429D01*
X6960428Y-18370381D01*
X6960428Y-18313238D01*
X6969952Y-18294190D01*
X6979476Y-18284667D01*
X6998524Y-18275143D01*
X7027095Y-18275143D01*
X7046143Y-18284667D01*
X7055667Y-18294190D01*
X7065190Y-18313238D01*
X7065190Y-18370381D01*
X7055667Y-18389429D01*
X7046143Y-18398952D01*
X7027095Y-18408476D01*
X6998524Y-18408476D01*
X7122333Y-18275143D02*
X7198524Y-18275143D01*
X7150905Y-18208476D02*
X7150905Y-18379905D01*
X7160428Y-18398952D01*
X7179476Y-18408476D01*
X7198524Y-18408476D01*
X7417571Y-18275143D02*
X7417571Y-18475143D01*
X7417571Y-18284667D02*
X7436619Y-18275143D01*
X7474714Y-18275143D01*
X7493762Y-18284667D01*
X7503286Y-18294190D01*
X7512809Y-18313238D01*
X7512809Y-18370381D01*
X7503286Y-18389429D01*
X7493762Y-18398952D01*
X7474714Y-18408476D01*
X7436619Y-18408476D01*
X7417571Y-18398952D01*
X7627095Y-18408476D02*
X7608048Y-18398952D01*
X7598524Y-18379905D01*
X7598524Y-18208476D01*
X7789000Y-18408476D02*
X7789000Y-18303714D01*
X7779476Y-18284667D01*
X7760428Y-18275143D01*
X7722333Y-18275143D01*
X7703286Y-18284667D01*
X7789000Y-18398952D02*
X7769952Y-18408476D01*
X7722333Y-18408476D01*
X7703286Y-18398952D01*
X7693762Y-18379905D01*
X7693762Y-18360857D01*
X7703286Y-18341810D01*
X7722333Y-18332286D01*
X7769952Y-18332286D01*
X7789000Y-18322762D01*
X7855667Y-18275143D02*
X7931857Y-18275143D01*
X7884238Y-18208476D02*
X7884238Y-18379905D01*
X7893762Y-18398952D01*
X7912809Y-18408476D01*
X7931857Y-18408476D01*
X8074714Y-18398952D02*
X8055667Y-18408476D01*
X8017571Y-18408476D01*
X7998524Y-18398952D01*
X7989000Y-18379905D01*
X7989000Y-18303714D01*
X7998524Y-18284667D01*
X8017571Y-18275143D01*
X8055667Y-18275143D01*
X8074714Y-18284667D01*
X8084238Y-18303714D01*
X8084238Y-18322762D01*
X7989000Y-18341810D01*
X8255667Y-18408476D02*
X8255667Y-18208476D01*
X8255667Y-18398952D02*
X8236619Y-18408476D01*
X8198524Y-18408476D01*
X8179476Y-18398952D01*
X8169952Y-18389429D01*
X8160428Y-18370381D01*
X8160428Y-18313238D01*
X8169952Y-18294190D01*
X8179476Y-18284667D01*
X8198524Y-18275143D01*
X8236619Y-18275143D01*
X8255667Y-18284667D01*
X8331857Y-18484667D02*
X8341381Y-18475143D01*
X8360428Y-18446571D01*
X8369952Y-18427524D01*
X8379476Y-18398952D01*
X8389000Y-18351333D01*
X8389000Y-18313238D01*
X8379476Y-18265619D01*
X8369952Y-18237048D01*
X8360428Y-18218000D01*
X8341381Y-18189429D01*
X8331857Y-18179905D01*
X1479000Y-18538000D02*
X1479000Y-18738000D01*
X1379000Y-18638000D02*
X1579000Y-18638000D01*
X1817571Y-18528476D02*
X1941381Y-18528476D01*
X1874714Y-18604667D01*
X1903286Y-18604667D01*
X1922333Y-18614190D01*
X1931857Y-18623714D01*
X1941381Y-18642762D01*
X1941381Y-18690381D01*
X1931857Y-18709429D01*
X1922333Y-18718952D01*
X1903286Y-18728476D01*
X1846143Y-18728476D01*
X1827095Y-18718952D01*
X1817571Y-18709429D01*
X2027095Y-18709429D02*
X2036619Y-18718952D01*
X2027095Y-18728476D01*
X2017571Y-18718952D01*
X2027095Y-18709429D01*
X2027095Y-18728476D01*
X2112810Y-18547524D02*
X2122333Y-18538000D01*
X2141381Y-18528476D01*
X2189000Y-18528476D01*
X2208048Y-18538000D01*
X2217571Y-18547524D01*
X2227095Y-18566571D01*
X2227095Y-18585619D01*
X2217571Y-18614190D01*
X2103286Y-18728476D01*
X2227095Y-18728476D01*
X2350905Y-18528476D02*
X2369952Y-18528476D01*
X2389000Y-18538000D01*
X2398524Y-18547524D01*
X2408048Y-18566571D01*
X2417571Y-18604667D01*
X2417571Y-18652286D01*
X2408048Y-18690381D01*
X2398524Y-18709429D01*
X2389000Y-18718952D01*
X2369952Y-18728476D01*
X2350905Y-18728476D01*
X2331857Y-18718952D01*
X2322333Y-18709429D01*
X2312810Y-18690381D01*
X2303286Y-18652286D01*
X2303286Y-18604667D01*
X2312810Y-18566571D01*
X2322333Y-18547524D01*
X2331857Y-18538000D01*
X2350905Y-18528476D01*
X2541381Y-18528476D02*
X2560429Y-18528476D01*
X2579476Y-18538000D01*
X2589000Y-18547524D01*
X2598524Y-18566571D01*
X2608048Y-18604667D01*
X2608048Y-18652286D01*
X2598524Y-18690381D01*
X2589000Y-18709429D01*
X2579476Y-18718952D01*
X2560429Y-18728476D01*
X2541381Y-18728476D01*
X2522333Y-18718952D01*
X2512810Y-18709429D01*
X2503286Y-18690381D01*
X2493762Y-18652286D01*
X2493762Y-18604667D01*
X2503286Y-18566571D01*
X2512810Y-18547524D01*
X2522333Y-18538000D01*
X2541381Y-18528476D01*
X2693762Y-18728476D02*
X2693762Y-18595143D01*
X2693762Y-18614190D02*
X2703286Y-18604667D01*
X2722333Y-18595143D01*
X2750905Y-18595143D01*
X2769952Y-18604667D01*
X2779476Y-18623714D01*
X2779476Y-18728476D01*
X2779476Y-18623714D02*
X2789000Y-18604667D01*
X2808048Y-18595143D01*
X2836619Y-18595143D01*
X2855667Y-18604667D01*
X2865190Y-18623714D01*
X2865190Y-18728476D01*
X2960428Y-18728476D02*
X2960428Y-18595143D01*
X2960428Y-18614190D02*
X2969952Y-18604667D01*
X2989000Y-18595143D01*
X3017571Y-18595143D01*
X3036619Y-18604667D01*
X3046143Y-18623714D01*
X3046143Y-18728476D01*
X3046143Y-18623714D02*
X3055667Y-18604667D01*
X3074714Y-18595143D01*
X3103286Y-18595143D01*
X3122333Y-18604667D01*
X3131857Y-18623714D01*
X3131857Y-18728476D01*
X3522333Y-18518952D02*
X3350905Y-18776095D01*
X3779476Y-18528476D02*
X3798524Y-18528476D01*
X3817571Y-18538000D01*
X3827095Y-18547524D01*
X3836619Y-18566571D01*
X3846143Y-18604667D01*
X3846143Y-18652286D01*
X3836619Y-18690381D01*
X3827095Y-18709429D01*
X3817571Y-18718952D01*
X3798524Y-18728476D01*
X3779476Y-18728476D01*
X3760428Y-18718952D01*
X3750905Y-18709429D01*
X3741381Y-18690381D01*
X3731857Y-18652286D01*
X3731857Y-18604667D01*
X3741381Y-18566571D01*
X3750905Y-18547524D01*
X3760428Y-18538000D01*
X3779476Y-18528476D01*
X3931857Y-18709429D02*
X3941381Y-18718952D01*
X3931857Y-18728476D01*
X3922333Y-18718952D01*
X3931857Y-18709429D01*
X3931857Y-18728476D01*
X4131857Y-18728476D02*
X4017571Y-18728476D01*
X4074714Y-18728476D02*
X4074714Y-18528476D01*
X4055667Y-18557048D01*
X4036619Y-18576095D01*
X4017571Y-18585619D01*
X4208048Y-18547524D02*
X4217571Y-18538000D01*
X4236619Y-18528476D01*
X4284238Y-18528476D01*
X4303286Y-18538000D01*
X4312810Y-18547524D01*
X4322333Y-18566571D01*
X4322333Y-18585619D01*
X4312810Y-18614190D01*
X4198524Y-18728476D01*
X4322333Y-18728476D01*
X4493762Y-18528476D02*
X4455667Y-18528476D01*
X4436619Y-18538000D01*
X4427095Y-18547524D01*
X4408048Y-18576095D01*
X4398524Y-18614190D01*
X4398524Y-18690381D01*
X4408048Y-18709429D01*
X4417571Y-18718952D01*
X4436619Y-18728476D01*
X4474714Y-18728476D01*
X4493762Y-18718952D01*
X4503286Y-18709429D01*
X4512810Y-18690381D01*
X4512810Y-18642762D01*
X4503286Y-18623714D01*
X4493762Y-18614190D01*
X4474714Y-18604667D01*
X4436619Y-18604667D01*
X4417571Y-18614190D01*
X4408048Y-18623714D01*
X4398524Y-18642762D01*
X4636619Y-18528476D02*
X4655667Y-18528476D01*
X4674714Y-18538000D01*
X4684238Y-18547524D01*
X4693762Y-18566571D01*
X4703286Y-18604667D01*
X4703286Y-18652286D01*
X4693762Y-18690381D01*
X4684238Y-18709429D01*
X4674714Y-18718952D01*
X4655667Y-18728476D01*
X4636619Y-18728476D01*
X4617571Y-18718952D01*
X4608048Y-18709429D01*
X4598524Y-18690381D01*
X4589000Y-18652286D01*
X4589000Y-18604667D01*
X4598524Y-18566571D01*
X4608048Y-18547524D01*
X4617571Y-18538000D01*
X4636619Y-18528476D01*
X4779476Y-18528476D02*
X4779476Y-18566571D01*
X4855667Y-18528476D02*
X4855667Y-18566571D01*
X5150905Y-18804667D02*
X5141381Y-18795143D01*
X5122333Y-18766571D01*
X5112810Y-18747524D01*
X5103286Y-18718952D01*
X5093762Y-18671333D01*
X5093762Y-18633238D01*
X5103286Y-18585619D01*
X5112810Y-18557048D01*
X5122333Y-18538000D01*
X5141381Y-18509429D01*
X5150905Y-18499905D01*
X5217571Y-18547524D02*
X5227095Y-18538000D01*
X5246143Y-18528476D01*
X5293762Y-18528476D01*
X5312810Y-18538000D01*
X5322333Y-18547524D01*
X5331857Y-18566571D01*
X5331857Y-18585619D01*
X5322333Y-18614190D01*
X5208048Y-18728476D01*
X5331857Y-18728476D01*
X5569952Y-18728476D02*
X5569952Y-18528476D01*
X5655667Y-18728476D02*
X5655667Y-18623714D01*
X5646143Y-18604667D01*
X5627095Y-18595143D01*
X5598524Y-18595143D01*
X5579476Y-18604667D01*
X5569952Y-18614190D01*
X5779476Y-18728476D02*
X5760428Y-18718952D01*
X5750905Y-18709429D01*
X5741381Y-18690381D01*
X5741381Y-18633238D01*
X5750905Y-18614190D01*
X5760428Y-18604667D01*
X5779476Y-18595143D01*
X5808048Y-18595143D01*
X5827095Y-18604667D01*
X5836619Y-18614190D01*
X5846143Y-18633238D01*
X5846143Y-18690381D01*
X5836619Y-18709429D01*
X5827095Y-18718952D01*
X5808048Y-18728476D01*
X5779476Y-18728476D01*
X5960428Y-18728476D02*
X5941381Y-18718952D01*
X5931857Y-18699905D01*
X5931857Y-18528476D01*
X6112809Y-18718952D02*
X6093762Y-18728476D01*
X6055667Y-18728476D01*
X6036619Y-18718952D01*
X6027095Y-18699905D01*
X6027095Y-18623714D01*
X6036619Y-18604667D01*
X6055667Y-18595143D01*
X6093762Y-18595143D01*
X6112809Y-18604667D01*
X6122333Y-18623714D01*
X6122333Y-18642762D01*
X6027095Y-18661810D01*
X6198524Y-18718952D02*
X6217571Y-18728476D01*
X6255667Y-18728476D01*
X6274714Y-18718952D01*
X6284238Y-18699905D01*
X6284238Y-18690381D01*
X6274714Y-18671333D01*
X6255667Y-18661810D01*
X6227095Y-18661810D01*
X6208048Y-18652286D01*
X6198524Y-18633238D01*
X6198524Y-18623714D01*
X6208048Y-18604667D01*
X6227095Y-18595143D01*
X6255667Y-18595143D01*
X6274714Y-18604667D01*
X6350905Y-18804667D02*
X6360428Y-18795143D01*
X6379476Y-18766571D01*
X6389000Y-18747524D01*
X6398524Y-18718952D01*
X6408048Y-18671333D01*
X6408048Y-18633238D01*
X6398524Y-18585619D01*
X6389000Y-18557048D01*
X6379476Y-18538000D01*
X6360428Y-18509429D01*
X6350905Y-18499905D01*
X6712809Y-18804667D02*
X6703286Y-18795143D01*
X6684238Y-18766571D01*
X6674714Y-18747524D01*
X6665190Y-18718952D01*
X6655667Y-18671333D01*
X6655667Y-18633238D01*
X6665190Y-18585619D01*
X6674714Y-18557048D01*
X6684238Y-18538000D01*
X6703286Y-18509429D01*
X6712809Y-18499905D01*
X6789000Y-18595143D02*
X6789000Y-18728476D01*
X6789000Y-18614190D02*
X6798524Y-18604667D01*
X6817571Y-18595143D01*
X6846143Y-18595143D01*
X6865190Y-18604667D01*
X6874714Y-18623714D01*
X6874714Y-18728476D01*
X6998524Y-18728476D02*
X6979476Y-18718952D01*
X6969952Y-18709429D01*
X6960428Y-18690381D01*
X6960428Y-18633238D01*
X6969952Y-18614190D01*
X6979476Y-18604667D01*
X6998524Y-18595143D01*
X7027095Y-18595143D01*
X7046143Y-18604667D01*
X7055667Y-18614190D01*
X7065190Y-18633238D01*
X7065190Y-18690381D01*
X7055667Y-18709429D01*
X7046143Y-18718952D01*
X7027095Y-18728476D01*
X6998524Y-18728476D01*
X7122333Y-18595143D02*
X7198524Y-18595143D01*
X7150905Y-18528476D02*
X7150905Y-18699905D01*
X7160428Y-18718952D01*
X7179476Y-18728476D01*
X7198524Y-18728476D01*
X7417571Y-18595143D02*
X7417571Y-18795143D01*
X7417571Y-18604667D02*
X7436619Y-18595143D01*
X7474714Y-18595143D01*
X7493762Y-18604667D01*
X7503286Y-18614190D01*
X7512809Y-18633238D01*
X7512809Y-18690381D01*
X7503286Y-18709429D01*
X7493762Y-18718952D01*
X7474714Y-18728476D01*
X7436619Y-18728476D01*
X7417571Y-18718952D01*
X7627095Y-18728476D02*
X7608048Y-18718952D01*
X7598524Y-18699905D01*
X7598524Y-18528476D01*
X7789000Y-18728476D02*
X7789000Y-18623714D01*
X7779476Y-18604667D01*
X7760428Y-18595143D01*
X7722333Y-18595143D01*
X7703286Y-18604667D01*
X7789000Y-18718952D02*
X7769952Y-18728476D01*
X7722333Y-18728476D01*
X7703286Y-18718952D01*
X7693762Y-18699905D01*
X7693762Y-18680857D01*
X7703286Y-18661810D01*
X7722333Y-18652286D01*
X7769952Y-18652286D01*
X7789000Y-18642762D01*
X7855667Y-18595143D02*
X7931857Y-18595143D01*
X7884238Y-18528476D02*
X7884238Y-18699905D01*
X7893762Y-18718952D01*
X7912809Y-18728476D01*
X7931857Y-18728476D01*
X8074714Y-18718952D02*
X8055667Y-18728476D01*
X8017571Y-18728476D01*
X7998524Y-18718952D01*
X7989000Y-18699905D01*
X7989000Y-18623714D01*
X7998524Y-18604667D01*
X8017571Y-18595143D01*
X8055667Y-18595143D01*
X8074714Y-18604667D01*
X8084238Y-18623714D01*
X8084238Y-18642762D01*
X7989000Y-18661810D01*
X8255667Y-18728476D02*
X8255667Y-18528476D01*
X8255667Y-18718952D02*
X8236619Y-18728476D01*
X8198524Y-18728476D01*
X8179476Y-18718952D01*
X8169952Y-18709429D01*
X8160428Y-18690381D01*
X8160428Y-18633238D01*
X8169952Y-18614190D01*
X8179476Y-18604667D01*
X8198524Y-18595143D01*
X8236619Y-18595143D01*
X8255667Y-18604667D01*
X8331857Y-18804667D02*
X8341381Y-18795143D01*
X8360428Y-18766571D01*
X8369952Y-18747524D01*
X8379476Y-18718952D01*
X8389000Y-18671333D01*
X8389000Y-18633238D01*
X8379476Y-18585619D01*
X8369952Y-18557048D01*
X8360428Y-18538000D01*
X8341381Y-18509429D01*
X8331857Y-18499905D01*
X1549711Y-19028711D02*
X1549711Y-18887289D01*
X1408289Y-18887289D01*
X1408289Y-19028711D01*
X1549711Y-19028711D01*
X1817571Y-18848476D02*
X1941381Y-18848476D01*
X1874714Y-18924667D01*
X1903286Y-18924667D01*
X1922333Y-18934190D01*
X1931857Y-18943714D01*
X1941381Y-18962762D01*
X1941381Y-19010381D01*
X1931857Y-19029429D01*
X1922333Y-19038952D01*
X1903286Y-19048476D01*
X1846143Y-19048476D01*
X1827095Y-19038952D01*
X1817571Y-19029429D01*
X2027095Y-19029429D02*
X2036619Y-19038952D01*
X2027095Y-19048476D01*
X2017571Y-19038952D01*
X2027095Y-19029429D01*
X2027095Y-19048476D01*
X2217571Y-18848476D02*
X2122333Y-18848476D01*
X2112810Y-18943714D01*
X2122333Y-18934190D01*
X2141381Y-18924667D01*
X2189000Y-18924667D01*
X2208048Y-18934190D01*
X2217571Y-18943714D01*
X2227095Y-18962762D01*
X2227095Y-19010381D01*
X2217571Y-19029429D01*
X2208048Y-19038952D01*
X2189000Y-19048476D01*
X2141381Y-19048476D01*
X2122333Y-19038952D01*
X2112810Y-19029429D01*
X2350905Y-18848476D02*
X2369952Y-18848476D01*
X2389000Y-18858000D01*
X2398524Y-18867524D01*
X2408048Y-18886571D01*
X2417571Y-18924667D01*
X2417571Y-18972286D01*
X2408048Y-19010381D01*
X2398524Y-19029429D01*
X2389000Y-19038952D01*
X2369952Y-19048476D01*
X2350905Y-19048476D01*
X2331857Y-19038952D01*
X2322333Y-19029429D01*
X2312810Y-19010381D01*
X2303286Y-18972286D01*
X2303286Y-18924667D01*
X2312810Y-18886571D01*
X2322333Y-18867524D01*
X2331857Y-18858000D01*
X2350905Y-18848476D01*
X2541381Y-18848476D02*
X2560429Y-18848476D01*
X2579476Y-18858000D01*
X2589000Y-18867524D01*
X2598524Y-18886571D01*
X2608048Y-18924667D01*
X2608048Y-18972286D01*
X2598524Y-19010381D01*
X2589000Y-19029429D01*
X2579476Y-19038952D01*
X2560429Y-19048476D01*
X2541381Y-19048476D01*
X2522333Y-19038952D01*
X2512810Y-19029429D01*
X2503286Y-19010381D01*
X2493762Y-18972286D01*
X2493762Y-18924667D01*
X2503286Y-18886571D01*
X2512810Y-18867524D01*
X2522333Y-18858000D01*
X2541381Y-18848476D01*
X2693762Y-19048476D02*
X2693762Y-18915143D01*
X2693762Y-18934190D02*
X2703286Y-18924667D01*
X2722333Y-18915143D01*
X2750905Y-18915143D01*
X2769952Y-18924667D01*
X2779476Y-18943714D01*
X2779476Y-19048476D01*
X2779476Y-18943714D02*
X2789000Y-18924667D01*
X2808048Y-18915143D01*
X2836619Y-18915143D01*
X2855667Y-18924667D01*
X2865190Y-18943714D01*
X2865190Y-19048476D01*
X2960428Y-19048476D02*
X2960428Y-18915143D01*
X2960428Y-18934190D02*
X2969952Y-18924667D01*
X2989000Y-18915143D01*
X3017571Y-18915143D01*
X3036619Y-18924667D01*
X3046143Y-18943714D01*
X3046143Y-19048476D01*
X3046143Y-18943714D02*
X3055667Y-18924667D01*
X3074714Y-18915143D01*
X3103286Y-18915143D01*
X3122333Y-18924667D01*
X3131857Y-18943714D01*
X3131857Y-19048476D01*
X3522333Y-18838952D02*
X3350905Y-19096095D01*
X3779476Y-18848476D02*
X3798524Y-18848476D01*
X3817571Y-18858000D01*
X3827095Y-18867524D01*
X3836619Y-18886571D01*
X3846143Y-18924667D01*
X3846143Y-18972286D01*
X3836619Y-19010381D01*
X3827095Y-19029429D01*
X3817571Y-19038952D01*
X3798524Y-19048476D01*
X3779476Y-19048476D01*
X3760428Y-19038952D01*
X3750905Y-19029429D01*
X3741381Y-19010381D01*
X3731857Y-18972286D01*
X3731857Y-18924667D01*
X3741381Y-18886571D01*
X3750905Y-18867524D01*
X3760428Y-18858000D01*
X3779476Y-18848476D01*
X3931857Y-19029429D02*
X3941381Y-19038952D01*
X3931857Y-19048476D01*
X3922333Y-19038952D01*
X3931857Y-19029429D01*
X3931857Y-19048476D01*
X4131857Y-19048476D02*
X4017571Y-19048476D01*
X4074714Y-19048476D02*
X4074714Y-18848476D01*
X4055667Y-18877048D01*
X4036619Y-18896095D01*
X4017571Y-18905619D01*
X4198524Y-18848476D02*
X4322333Y-18848476D01*
X4255667Y-18924667D01*
X4284238Y-18924667D01*
X4303286Y-18934190D01*
X4312810Y-18943714D01*
X4322333Y-18962762D01*
X4322333Y-19010381D01*
X4312810Y-19029429D01*
X4303286Y-19038952D01*
X4284238Y-19048476D01*
X4227095Y-19048476D01*
X4208048Y-19038952D01*
X4198524Y-19029429D01*
X4389000Y-18848476D02*
X4522333Y-18848476D01*
X4436619Y-19048476D01*
X4627095Y-18934190D02*
X4608048Y-18924667D01*
X4598524Y-18915143D01*
X4589000Y-18896095D01*
X4589000Y-18886571D01*
X4598524Y-18867524D01*
X4608048Y-18858000D01*
X4627095Y-18848476D01*
X4665190Y-18848476D01*
X4684238Y-18858000D01*
X4693762Y-18867524D01*
X4703286Y-18886571D01*
X4703286Y-18896095D01*
X4693762Y-18915143D01*
X4684238Y-18924667D01*
X4665190Y-18934190D01*
X4627095Y-18934190D01*
X4608048Y-18943714D01*
X4598524Y-18953238D01*
X4589000Y-18972286D01*
X4589000Y-19010381D01*
X4598524Y-19029429D01*
X4608048Y-19038952D01*
X4627095Y-19048476D01*
X4665190Y-19048476D01*
X4684238Y-19038952D01*
X4693762Y-19029429D01*
X4703286Y-19010381D01*
X4703286Y-18972286D01*
X4693762Y-18953238D01*
X4684238Y-18943714D01*
X4665190Y-18934190D01*
X4779476Y-18848476D02*
X4779476Y-18886571D01*
X4855667Y-18848476D02*
X4855667Y-18886571D01*
X5150905Y-19124667D02*
X5141381Y-19115143D01*
X5122333Y-19086571D01*
X5112810Y-19067524D01*
X5103286Y-19038952D01*
X5093762Y-18991333D01*
X5093762Y-18953238D01*
X5103286Y-18905619D01*
X5112810Y-18877048D01*
X5122333Y-18858000D01*
X5141381Y-18829429D01*
X5150905Y-18819905D01*
X5217571Y-18867524D02*
X5227095Y-18858000D01*
X5246143Y-18848476D01*
X5293762Y-18848476D01*
X5312810Y-18858000D01*
X5322333Y-18867524D01*
X5331857Y-18886571D01*
X5331857Y-18905619D01*
X5322333Y-18934190D01*
X5208048Y-19048476D01*
X5331857Y-19048476D01*
X5569952Y-19048476D02*
X5569952Y-18848476D01*
X5655667Y-19048476D02*
X5655667Y-18943714D01*
X5646143Y-18924667D01*
X5627095Y-18915143D01*
X5598524Y-18915143D01*
X5579476Y-18924667D01*
X5569952Y-18934190D01*
X5779476Y-19048476D02*
X5760428Y-19038952D01*
X5750905Y-19029429D01*
X5741381Y-19010381D01*
X5741381Y-18953238D01*
X5750905Y-18934190D01*
X5760428Y-18924667D01*
X5779476Y-18915143D01*
X5808048Y-18915143D01*
X5827095Y-18924667D01*
X5836619Y-18934190D01*
X5846143Y-18953238D01*
X5846143Y-19010381D01*
X5836619Y-19029429D01*
X5827095Y-19038952D01*
X5808048Y-19048476D01*
X5779476Y-19048476D01*
X5960428Y-19048476D02*
X5941381Y-19038952D01*
X5931857Y-19019905D01*
X5931857Y-18848476D01*
X6112809Y-19038952D02*
X6093762Y-19048476D01*
X6055667Y-19048476D01*
X6036619Y-19038952D01*
X6027095Y-19019905D01*
X6027095Y-18943714D01*
X6036619Y-18924667D01*
X6055667Y-18915143D01*
X6093762Y-18915143D01*
X6112809Y-18924667D01*
X6122333Y-18943714D01*
X6122333Y-18962762D01*
X6027095Y-18981810D01*
X6198524Y-19038952D02*
X6217571Y-19048476D01*
X6255667Y-19048476D01*
X6274714Y-19038952D01*
X6284238Y-19019905D01*
X6284238Y-19010381D01*
X6274714Y-18991333D01*
X6255667Y-18981810D01*
X6227095Y-18981810D01*
X6208048Y-18972286D01*
X6198524Y-18953238D01*
X6198524Y-18943714D01*
X6208048Y-18924667D01*
X6227095Y-18915143D01*
X6255667Y-18915143D01*
X6274714Y-18924667D01*
X6350905Y-19124667D02*
X6360428Y-19115143D01*
X6379476Y-19086571D01*
X6389000Y-19067524D01*
X6398524Y-19038952D01*
X6408048Y-18991333D01*
X6408048Y-18953238D01*
X6398524Y-18905619D01*
X6389000Y-18877048D01*
X6379476Y-18858000D01*
X6360428Y-18829429D01*
X6350905Y-18819905D01*
X6712809Y-19124667D02*
X6703286Y-19115143D01*
X6684238Y-19086571D01*
X6674714Y-19067524D01*
X6665190Y-19038952D01*
X6655667Y-18991333D01*
X6655667Y-18953238D01*
X6665190Y-18905619D01*
X6674714Y-18877048D01*
X6684238Y-18858000D01*
X6703286Y-18829429D01*
X6712809Y-18819905D01*
X6789000Y-18915143D02*
X6789000Y-19048476D01*
X6789000Y-18934190D02*
X6798524Y-18924667D01*
X6817571Y-18915143D01*
X6846143Y-18915143D01*
X6865190Y-18924667D01*
X6874714Y-18943714D01*
X6874714Y-19048476D01*
X6998524Y-19048476D02*
X6979476Y-19038952D01*
X6969952Y-19029429D01*
X6960428Y-19010381D01*
X6960428Y-18953238D01*
X6969952Y-18934190D01*
X6979476Y-18924667D01*
X6998524Y-18915143D01*
X7027095Y-18915143D01*
X7046143Y-18924667D01*
X7055667Y-18934190D01*
X7065190Y-18953238D01*
X7065190Y-19010381D01*
X7055667Y-19029429D01*
X7046143Y-19038952D01*
X7027095Y-19048476D01*
X6998524Y-19048476D01*
X7122333Y-18915143D02*
X7198524Y-18915143D01*
X7150905Y-18848476D02*
X7150905Y-19019905D01*
X7160428Y-19038952D01*
X7179476Y-19048476D01*
X7198524Y-19048476D01*
X7417571Y-18915143D02*
X7417571Y-19115143D01*
X7417571Y-18924667D02*
X7436619Y-18915143D01*
X7474714Y-18915143D01*
X7493762Y-18924667D01*
X7503286Y-18934190D01*
X7512809Y-18953238D01*
X7512809Y-19010381D01*
X7503286Y-19029429D01*
X7493762Y-19038952D01*
X7474714Y-19048476D01*
X7436619Y-19048476D01*
X7417571Y-19038952D01*
X7627095Y-19048476D02*
X7608048Y-19038952D01*
X7598524Y-19019905D01*
X7598524Y-18848476D01*
X7789000Y-19048476D02*
X7789000Y-18943714D01*
X7779476Y-18924667D01*
X7760428Y-18915143D01*
X7722333Y-18915143D01*
X7703286Y-18924667D01*
X7789000Y-19038952D02*
X7769952Y-19048476D01*
X7722333Y-19048476D01*
X7703286Y-19038952D01*
X7693762Y-19019905D01*
X7693762Y-19000857D01*
X7703286Y-18981810D01*
X7722333Y-18972286D01*
X7769952Y-18972286D01*
X7789000Y-18962762D01*
X7855667Y-18915143D02*
X7931857Y-18915143D01*
X7884238Y-18848476D02*
X7884238Y-19019905D01*
X7893762Y-19038952D01*
X7912809Y-19048476D01*
X7931857Y-19048476D01*
X8074714Y-19038952D02*
X8055667Y-19048476D01*
X8017571Y-19048476D01*
X7998524Y-19038952D01*
X7989000Y-19019905D01*
X7989000Y-18943714D01*
X7998524Y-18924667D01*
X8017571Y-18915143D01*
X8055667Y-18915143D01*
X8074714Y-18924667D01*
X8084238Y-18943714D01*
X8084238Y-18962762D01*
X7989000Y-18981810D01*
X8255667Y-19048476D02*
X8255667Y-18848476D01*
X8255667Y-19038952D02*
X8236619Y-19048476D01*
X8198524Y-19048476D01*
X8179476Y-19038952D01*
X8169952Y-19029429D01*
X8160428Y-19010381D01*
X8160428Y-18953238D01*
X8169952Y-18934190D01*
X8179476Y-18924667D01*
X8198524Y-18915143D01*
X8236619Y-18915143D01*
X8255667Y-18924667D01*
X8331857Y-19124667D02*
X8341381Y-19115143D01*
X8360428Y-19086571D01*
X8369952Y-19067524D01*
X8379476Y-19038952D01*
X8389000Y-18991333D01*
X8389000Y-18953238D01*
X8379476Y-18905619D01*
X8369952Y-18877048D01*
X8360428Y-18858000D01*
X8341381Y-18829429D01*
X8331857Y-18819905D01*
M02*
