G04 #@! TF.GenerationSoftware,KiCad,Pcbnew,6.0.2+dfsg-1*
G04 #@! TF.CreationDate,2023-05-08T07:17:19+02:00*
G04 #@! TF.ProjectId,fm-rpt-control,666d2d72-7074-42d6-936f-6e74726f6c2e,A*
G04 #@! TF.SameCoordinates,Original*
G04 #@! TF.FileFunction,Soldermask,Top*
G04 #@! TF.FilePolarity,Negative*
%FSLAX46Y46*%
G04 Gerber Fmt 4.6, Leading zero omitted, Abs format (unit mm)*
G04 Created by KiCad (PCBNEW 6.0.2+dfsg-1) date 2023-05-08 07:17:19*
%MOMM*%
%LPD*%
G01*
G04 APERTURE LIST*
G04 Aperture macros list*
%AMRoundRect*
0 Rectangle with rounded corners*
0 $1 Rounding radius*
0 $2 $3 $4 $5 $6 $7 $8 $9 X,Y pos of 4 corners*
0 Add a 4 corners polygon primitive as box body*
4,1,4,$2,$3,$4,$5,$6,$7,$8,$9,$2,$3,0*
0 Add four circle primitives for the rounded corners*
1,1,$1+$1,$2,$3*
1,1,$1+$1,$4,$5*
1,1,$1+$1,$6,$7*
1,1,$1+$1,$8,$9*
0 Add four rect primitives between the rounded corners*
20,1,$1+$1,$2,$3,$4,$5,0*
20,1,$1+$1,$4,$5,$6,$7,0*
20,1,$1+$1,$6,$7,$8,$9,0*
20,1,$1+$1,$8,$9,$2,$3,0*%
%AMFreePoly0*
4,1,25,0.555019,1.072796,0.567142,1.062442,1.062442,0.567142,1.090949,0.511194,1.092200,0.495300,1.092200,-0.495300,1.072796,-0.555019,1.062442,-0.567142,0.567142,-1.062442,0.511194,-1.090949,0.495300,-1.092200,-0.495300,-1.092200,-0.555019,-1.072796,-0.567142,-1.062442,-1.062442,-0.567142,-1.090949,-0.511194,-1.092200,-0.495300,-1.092200,0.495300,-1.072796,0.555019,-1.062442,0.567142,
-0.567142,1.062442,-0.511194,1.090949,-0.495300,1.092200,0.495300,1.092200,0.555019,1.072796,0.555019,1.072796,$1*%
G04 Aperture macros list end*
%ADD10C,0.150000*%
%ADD11C,0.010000*%
%ADD12RoundRect,0.250001X0.499999X0.924999X-0.499999X0.924999X-0.499999X-0.924999X0.499999X-0.924999X0*%
%ADD13RoundRect,0.250000X-0.412500X-0.650000X0.412500X-0.650000X0.412500X0.650000X-0.412500X0.650000X0*%
%ADD14RoundRect,0.250000X-0.450000X0.350000X-0.450000X-0.350000X0.450000X-0.350000X0.450000X0.350000X0*%
%ADD15C,1.600000*%
%ADD16R,1.200000X2.500000*%
%ADD17RoundRect,0.250000X-0.475000X0.337500X-0.475000X-0.337500X0.475000X-0.337500X0.475000X0.337500X0*%
%ADD18RoundRect,0.250000X0.350000X0.450000X-0.350000X0.450000X-0.350000X-0.450000X0.350000X-0.450000X0*%
%ADD19RoundRect,0.250000X0.450000X-0.350000X0.450000X0.350000X-0.450000X0.350000X-0.450000X-0.350000X0*%
%ADD20R,3.500000X2.300000*%
%ADD21O,1.625600X3.048000*%
%ADD22C,1.879600*%
%ADD23C,2.000000*%
%ADD24RoundRect,0.150000X0.150000X-0.587500X0.150000X0.587500X-0.150000X0.587500X-0.150000X-0.587500X0*%
%ADD25C,2.794000*%
%ADD26FreePoly0,180.000000*%
%ADD27O,2.184400X4.165600*%
%ADD28RoundRect,0.250000X-0.650000X0.412500X-0.650000X-0.412500X0.650000X-0.412500X0.650000X0.412500X0*%
%ADD29RoundRect,0.150000X-0.150000X0.825000X-0.150000X-0.825000X0.150000X-0.825000X0.150000X0.825000X0*%
%ADD30RoundRect,0.250000X-0.350000X-0.450000X0.350000X-0.450000X0.350000X0.450000X-0.350000X0.450000X0*%
%ADD31RoundRect,0.250000X0.475000X-0.337500X0.475000X0.337500X-0.475000X0.337500X-0.475000X-0.337500X0*%
%ADD32C,4.000000*%
%ADD33R,1.600000X1.600000*%
%ADD34RoundRect,0.250000X-0.450000X0.325000X-0.450000X-0.325000X0.450000X-0.325000X0.450000X0.325000X0*%
%ADD35RoundRect,0.250000X-0.875000X-1.025000X0.875000X-1.025000X0.875000X1.025000X-0.875000X1.025000X0*%
%ADD36O,1.600000X1.600000*%
%ADD37RoundRect,0.250000X0.412500X0.650000X-0.412500X0.650000X-0.412500X-0.650000X0.412500X-0.650000X0*%
%ADD38R,0.400000X1.500000*%
%ADD39R,1.700000X1.700000*%
%ADD40O,1.700000X1.700000*%
%ADD41RoundRect,0.101600X-0.654000X0.654000X-0.654000X-0.654000X0.654000X-0.654000X0.654000X0.654000X0*%
%ADD42RoundRect,0.150000X-0.825000X-0.150000X0.825000X-0.150000X0.825000X0.150000X-0.825000X0.150000X0*%
%ADD43RoundRect,0.101600X0.330200X1.016000X-0.330200X1.016000X-0.330200X-1.016000X0.330200X-1.016000X0*%
%ADD44C,2.003200*%
%ADD45RoundRect,0.250000X-0.337500X-0.475000X0.337500X-0.475000X0.337500X0.475000X-0.337500X0.475000X0*%
%ADD46RoundRect,0.101600X0.654000X-0.654000X0.654000X0.654000X-0.654000X0.654000X-0.654000X-0.654000X0*%
%ADD47RoundRect,0.150000X0.150000X-0.512500X0.150000X0.512500X-0.150000X0.512500X-0.150000X-0.512500X0*%
%ADD48RoundRect,0.375000X0.375000X-0.875000X0.375000X0.875000X-0.375000X0.875000X-0.375000X-0.875000X0*%
%ADD49C,2.340000*%
%ADD50R,2.500000X1.200000*%
%ADD51R,1.780000X2.000000*%
%ADD52RoundRect,0.237500X0.237500X-0.250000X0.237500X0.250000X-0.237500X0.250000X-0.237500X-0.250000X0*%
%ADD53RoundRect,0.249999X-0.512501X-1.075001X0.512501X-1.075001X0.512501X1.075001X-0.512501X1.075001X0*%
%ADD54R,0.900000X1.200000*%
%ADD55RoundRect,0.150000X-0.587500X-0.150000X0.587500X-0.150000X0.587500X0.150000X-0.587500X0.150000X0*%
%ADD56R,0.700000X0.510000*%
%ADD57RoundRect,0.250001X-0.499999X-0.924999X0.499999X-0.924999X0.499999X0.924999X-0.499999X0.924999X0*%
%ADD58C,1.100000*%
%ADD59O,1.800000X2.300000*%
%ADD60O,2.000000X2.300000*%
%ADD61R,1.500000X0.400000*%
%ADD62R,2.000000X1.780000*%
%ADD63C,2.200000*%
%ADD64C,1.700000*%
%ADD65R,1.300000X2.000000*%
%ADD66R,2.000000X2.000000*%
%ADD67RoundRect,0.150000X0.587500X0.150000X-0.587500X0.150000X-0.587500X-0.150000X0.587500X-0.150000X0*%
%ADD68RoundRect,0.250000X0.337500X0.475000X-0.337500X0.475000X-0.337500X-0.475000X0.337500X-0.475000X0*%
%ADD69RoundRect,0.150000X-0.150000X0.725000X-0.150000X-0.725000X0.150000X-0.725000X0.150000X0.725000X0*%
%ADD70RoundRect,0.250001X-0.924999X0.499999X-0.924999X-0.499999X0.924999X-0.499999X0.924999X0.499999X0*%
%ADD71R,0.533400X1.803400*%
%ADD72RoundRect,0.249999X-1.075001X0.512501X-1.075001X-0.512501X1.075001X-0.512501X1.075001X0.512501X0*%
%ADD73RoundRect,0.250000X-0.325000X-0.450000X0.325000X-0.450000X0.325000X0.450000X-0.325000X0.450000X0*%
%ADD74RoundRect,0.250001X0.924999X-0.499999X0.924999X0.499999X-0.924999X0.499999X-0.924999X-0.499999X0*%
%ADD75C,3.200000*%
%ADD76O,3.500000X3.500000*%
%ADD77R,1.905000X2.000000*%
%ADD78O,1.905000X2.000000*%
%ADD79R,1.200000X0.900000*%
%ADD80R,4.600000X2.000000*%
%ADD81O,4.200000X2.000000*%
%ADD82O,2.000000X4.200000*%
%ADD83C,3.000000*%
%ADD84RoundRect,0.150000X0.825000X0.150000X-0.825000X0.150000X-0.825000X-0.150000X0.825000X-0.150000X0*%
%ADD85C,2.500000*%
%ADD86R,0.760000X1.600000*%
%ADD87RoundRect,0.250000X0.450000X-0.325000X0.450000X0.325000X-0.450000X0.325000X-0.450000X-0.325000X0*%
%ADD88C,2.184400*%
G04 APERTURE END LIST*
D10*
X150890000Y-81660000D02*
X160580000Y-81660000D01*
X160580000Y-81660000D02*
X160580000Y-95560000D01*
X160580000Y-95560000D02*
X150890000Y-95560000D01*
X150890000Y-95560000D02*
X150890000Y-81660000D01*
G36*
X150890000Y-81660000D02*
G01*
X160580000Y-81660000D01*
X160580000Y-95560000D01*
X150890000Y-95560000D01*
X150890000Y-81660000D01*
G37*
X162000000Y-70960000D02*
X171690000Y-70960000D01*
X171690000Y-70960000D02*
X171690000Y-84860000D01*
X171690000Y-84860000D02*
X162000000Y-84860000D01*
X162000000Y-84860000D02*
X162000000Y-70960000D01*
G36*
X162000000Y-70960000D02*
G01*
X171690000Y-70960000D01*
X171690000Y-84860000D01*
X162000000Y-84860000D01*
X162000000Y-70960000D01*
G37*
D11*
X160220000Y-58220000D02*
X160220000Y-59220000D01*
X160220000Y-59220000D02*
X159220000Y-59220000D01*
X159220000Y-59220000D02*
X159220000Y-58220000D01*
X159220000Y-58220000D02*
X160220000Y-58220000D01*
G36*
X160220000Y-59220000D02*
G01*
X159220000Y-59220000D01*
X159220000Y-58220000D01*
X160220000Y-58220000D01*
X160220000Y-59220000D01*
G37*
X160220000Y-59220000D02*
X159220000Y-59220000D01*
X159220000Y-58220000D01*
X160220000Y-58220000D01*
X160220000Y-59220000D01*
X160220000Y-55020000D02*
X160220000Y-56020000D01*
X160220000Y-56020000D02*
X159220000Y-56020000D01*
X159220000Y-56020000D02*
X159220000Y-55020000D01*
X159220000Y-55020000D02*
X160220000Y-55020000D01*
G36*
X160220000Y-56020000D02*
G01*
X159220000Y-56020000D01*
X159220000Y-55020000D01*
X160220000Y-55020000D01*
X160220000Y-56020000D01*
G37*
X160220000Y-56020000D02*
X159220000Y-56020000D01*
X159220000Y-55020000D01*
X160220000Y-55020000D01*
X160220000Y-56020000D01*
X161020000Y-56820000D02*
X161020000Y-57420000D01*
X161020000Y-57420000D02*
X158420000Y-57420000D01*
X158420000Y-57420000D02*
X158420000Y-56820000D01*
X158420000Y-56820000D02*
X161020000Y-56820000D01*
G36*
X161020000Y-57420000D02*
G01*
X158420000Y-57420000D01*
X158420000Y-56820000D01*
X161020000Y-56820000D01*
X161020000Y-57420000D01*
G37*
X161020000Y-57420000D02*
X158420000Y-57420000D01*
X158420000Y-56820000D01*
X161020000Y-56820000D01*
X161020000Y-57420000D01*
D12*
X114325000Y-63950000D03*
X111075000Y-63950000D03*
D13*
X74637500Y-149352000D03*
X77762500Y-149352000D03*
D14*
X39100000Y-107700000D03*
X39100000Y-109700000D03*
D15*
X76575000Y-29826000D03*
X79750000Y-29826000D03*
X82925000Y-29826000D03*
X76575000Y-33001000D03*
X79750000Y-33001000D03*
X82925000Y-33001000D03*
D16*
X73400000Y-31096000D03*
X86100000Y-31096000D03*
D17*
X157226000Y-51794500D03*
X157226000Y-53869500D03*
D18*
X58200000Y-93900000D03*
X56200000Y-93900000D03*
D12*
X149875000Y-74150000D03*
X146625000Y-74150000D03*
D18*
X89250000Y-66250000D03*
X87250000Y-66250000D03*
D19*
X39100000Y-105700000D03*
X39100000Y-103700000D03*
D18*
X81772000Y-148336000D03*
X79772000Y-148336000D03*
D20*
X169630000Y-33370000D03*
X164230000Y-33370000D03*
D21*
X104550000Y-164400000D03*
X102010000Y-164400000D03*
X99470000Y-164400000D03*
D22*
X104550000Y-169480000D03*
X99470000Y-169480000D03*
D14*
X25000000Y-152050000D03*
X25000000Y-154050000D03*
D23*
X42926000Y-131941000D03*
X40386000Y-126861000D03*
X37846000Y-131941000D03*
D24*
X43630000Y-63207500D03*
X45530000Y-63207500D03*
X44580000Y-61332500D03*
D23*
X54864000Y-142355000D03*
X52324000Y-137275000D03*
X49784000Y-142355000D03*
D25*
X135820000Y-23130000D03*
X120580000Y-23130000D03*
D26*
X120580000Y-28210000D03*
D27*
X128200000Y-28210000D03*
D26*
X135820000Y-28210000D03*
X123120000Y-30750000D03*
X133280000Y-30750000D03*
X130740000Y-18050000D03*
X125660000Y-18050000D03*
D28*
X74676000Y-151638000D03*
X74676000Y-154763000D03*
D19*
X97756000Y-70056000D03*
X97756000Y-68056000D03*
X64262000Y-159496000D03*
X64262000Y-157496000D03*
D29*
X121110000Y-136465000D03*
X119840000Y-136465000D03*
X118570000Y-136465000D03*
X117300000Y-136465000D03*
X116030000Y-136465000D03*
X114760000Y-136465000D03*
X113490000Y-136465000D03*
X113490000Y-141415000D03*
X114760000Y-141415000D03*
X116030000Y-141415000D03*
X117300000Y-141415000D03*
X118570000Y-141415000D03*
X119840000Y-141415000D03*
X121110000Y-141415000D03*
D30*
X72850000Y-99050000D03*
X74850000Y-99050000D03*
D29*
X150070000Y-136455000D03*
X148800000Y-136455000D03*
X147530000Y-136455000D03*
X146260000Y-136455000D03*
X144990000Y-136455000D03*
X143720000Y-136455000D03*
X142450000Y-136455000D03*
X142450000Y-141405000D03*
X143720000Y-141405000D03*
X144990000Y-141405000D03*
X146260000Y-141405000D03*
X147530000Y-141405000D03*
X148800000Y-141405000D03*
X150070000Y-141405000D03*
D30*
X49292000Y-123190000D03*
X51292000Y-123190000D03*
D31*
X159860000Y-71387500D03*
X159860000Y-69312500D03*
D19*
X129000000Y-120050000D03*
X129000000Y-118050000D03*
X32400000Y-138800000D03*
X32400000Y-136800000D03*
D32*
X46850000Y-23280331D03*
X21850000Y-23280331D03*
D33*
X28810000Y-23580331D03*
D15*
X31580000Y-23580331D03*
X34350000Y-23580331D03*
X37120000Y-23580331D03*
X39890000Y-23580331D03*
X30195000Y-20740331D03*
X32965000Y-20740331D03*
X35735000Y-20740331D03*
X38505000Y-20740331D03*
D34*
X120100000Y-118475000D03*
X120100000Y-120525000D03*
D35*
X100000000Y-44700000D03*
X106400000Y-44700000D03*
D31*
X59944000Y-144785500D03*
X59944000Y-142710500D03*
D29*
X121120000Y-149095000D03*
X119850000Y-149095000D03*
X118580000Y-149095000D03*
X117310000Y-149095000D03*
X116040000Y-149095000D03*
X114770000Y-149095000D03*
X113500000Y-149095000D03*
X113500000Y-154045000D03*
X114770000Y-154045000D03*
X116040000Y-154045000D03*
X117310000Y-154045000D03*
X118580000Y-154045000D03*
X119850000Y-154045000D03*
X121120000Y-154045000D03*
D33*
X104375000Y-78200000D03*
D36*
X101835000Y-78200000D03*
X99295000Y-78200000D03*
X96755000Y-78200000D03*
X94215000Y-78200000D03*
X91675000Y-78200000D03*
X89135000Y-78200000D03*
X86595000Y-78200000D03*
X84055000Y-78200000D03*
D30*
X41672000Y-123190000D03*
X43672000Y-123190000D03*
D18*
X43200000Y-74950000D03*
X41200000Y-74950000D03*
D29*
X49860000Y-83025000D03*
X48590000Y-83025000D03*
X47320000Y-83025000D03*
X46050000Y-83025000D03*
X44780000Y-83025000D03*
X43510000Y-83025000D03*
X42240000Y-83025000D03*
X42240000Y-87975000D03*
X43510000Y-87975000D03*
X44780000Y-87975000D03*
X46050000Y-87975000D03*
X47320000Y-87975000D03*
X48590000Y-87975000D03*
X49860000Y-87975000D03*
D18*
X32500000Y-142100000D03*
X30500000Y-142100000D03*
D37*
X58458500Y-156464000D03*
X55333500Y-156464000D03*
D38*
X92750000Y-98270000D03*
X92100000Y-98270000D03*
X91450000Y-98270000D03*
X91450000Y-100930000D03*
X92750000Y-100930000D03*
D23*
X148070000Y-165130000D03*
X145530000Y-165130000D03*
X148070000Y-167670000D03*
X145530000Y-167670000D03*
D38*
X111400000Y-42470000D03*
X110750000Y-42470000D03*
X110100000Y-42470000D03*
X110100000Y-45130000D03*
X111400000Y-45130000D03*
D14*
X135670000Y-68030000D03*
X135670000Y-70030000D03*
D39*
X24335000Y-65500000D03*
D40*
X21795000Y-65500000D03*
X19255000Y-65500000D03*
D14*
X143100000Y-118250000D03*
X143100000Y-120250000D03*
D18*
X67150000Y-86570000D03*
X65150000Y-86570000D03*
D19*
X28950000Y-139500000D03*
X28950000Y-137500000D03*
D29*
X135600000Y-149085000D03*
X134330000Y-149085000D03*
X133060000Y-149085000D03*
X131790000Y-149085000D03*
X130520000Y-149085000D03*
X129250000Y-149085000D03*
X127980000Y-149085000D03*
X127980000Y-154035000D03*
X129250000Y-154035000D03*
X130520000Y-154035000D03*
X131790000Y-154035000D03*
X133060000Y-154035000D03*
X134330000Y-154035000D03*
X135600000Y-154035000D03*
D15*
X114830000Y-29570000D03*
X114830000Y-32070000D03*
D41*
X105615000Y-60375000D03*
X105615000Y-52755000D03*
X92915000Y-60375000D03*
X92915000Y-52755000D03*
D30*
X127690000Y-34320000D03*
X129690000Y-34320000D03*
D15*
X59200000Y-31000000D03*
X61700000Y-31000000D03*
D14*
X71120000Y-139716000D03*
X71120000Y-141716000D03*
D42*
X63057000Y-140573000D03*
X63057000Y-141843000D03*
X63057000Y-143113000D03*
X63057000Y-144383000D03*
X68007000Y-144383000D03*
X68007000Y-143113000D03*
X68007000Y-141843000D03*
X68007000Y-140573000D03*
D14*
X82296000Y-128286000D03*
X82296000Y-130286000D03*
D42*
X27225000Y-145245000D03*
X27225000Y-146515000D03*
X27225000Y-147785000D03*
X27225000Y-149055000D03*
X32175000Y-149055000D03*
X32175000Y-147785000D03*
X32175000Y-146515000D03*
X32175000Y-145245000D03*
D19*
X28600000Y-153100000D03*
X28600000Y-151100000D03*
D30*
X53610000Y-123190000D03*
X55610000Y-123190000D03*
D43*
X121110000Y-123306600D03*
X119840000Y-123306600D03*
X118570000Y-123306600D03*
X117300000Y-123306600D03*
X116030000Y-123306600D03*
X114760000Y-123306600D03*
X113490000Y-123306600D03*
X113490000Y-129453400D03*
X114760000Y-129453400D03*
X116030000Y-129453400D03*
X117300000Y-129453400D03*
X118570000Y-129453400D03*
X119840000Y-129453400D03*
X121110000Y-129453400D03*
D31*
X84300000Y-134387500D03*
X84300000Y-132312500D03*
D44*
X122790000Y-164420000D03*
X120250000Y-164420000D03*
X117710000Y-164420000D03*
X122790000Y-161880000D03*
X120250000Y-161880000D03*
X117710000Y-161880000D03*
D22*
X122790000Y-169500000D03*
X117710000Y-169500000D03*
D45*
X22262500Y-80000000D03*
X24337500Y-80000000D03*
D30*
X31200000Y-80500000D03*
X33200000Y-80500000D03*
X60800000Y-111400000D03*
X62800000Y-111400000D03*
D19*
X118500000Y-107600000D03*
X118500000Y-105600000D03*
D30*
X58944000Y-123190000D03*
X60944000Y-123190000D03*
D19*
X92676000Y-70056000D03*
X92676000Y-68056000D03*
X80010000Y-139684000D03*
X80010000Y-137684000D03*
D18*
X76850000Y-122200000D03*
X74850000Y-122200000D03*
D14*
X42550000Y-91200000D03*
X42550000Y-93200000D03*
D46*
X55675000Y-41095000D03*
X55675000Y-48715000D03*
X68375000Y-41095000D03*
X68375000Y-48715000D03*
D47*
X98330000Y-83037500D03*
X99280000Y-83037500D03*
X100230000Y-83037500D03*
X100230000Y-80762500D03*
X99280000Y-80762500D03*
X98330000Y-80762500D03*
D14*
X149883500Y-118200000D03*
X149883500Y-120200000D03*
D31*
X42700000Y-105537500D03*
X42700000Y-103462500D03*
D29*
X107720000Y-136475000D03*
X106450000Y-136475000D03*
X105180000Y-136475000D03*
X103910000Y-136475000D03*
X102640000Y-136475000D03*
X101370000Y-136475000D03*
X100100000Y-136475000D03*
X100100000Y-141425000D03*
X101370000Y-141425000D03*
X102640000Y-141425000D03*
X103910000Y-141425000D03*
X105180000Y-141425000D03*
X106450000Y-141425000D03*
X107720000Y-141425000D03*
D14*
X58674000Y-135382000D03*
X58674000Y-137382000D03*
D29*
X107710000Y-123895000D03*
X106440000Y-123895000D03*
X105170000Y-123895000D03*
X103900000Y-123895000D03*
X102630000Y-123895000D03*
X101360000Y-123895000D03*
X100090000Y-123895000D03*
X100090000Y-128845000D03*
X101360000Y-128845000D03*
X102630000Y-128845000D03*
X103900000Y-128845000D03*
X105170000Y-128845000D03*
X106440000Y-128845000D03*
X107710000Y-128845000D03*
D48*
X142552000Y-115479000D03*
X146235000Y-115479000D03*
X149918000Y-115479000D03*
X142552000Y-108621000D03*
X146235000Y-108621000D03*
X149918000Y-108621000D03*
D15*
X66950000Y-31800000D03*
X69450000Y-31800000D03*
D37*
X53378500Y-156464000D03*
X50253500Y-156464000D03*
D19*
X24950000Y-150250000D03*
X24950000Y-148250000D03*
D49*
X41450000Y-168950000D03*
X46450000Y-168950000D03*
X51450000Y-168950000D03*
D30*
X70120000Y-151638000D03*
X72120000Y-151638000D03*
D15*
X92576000Y-38675000D03*
X92576000Y-35500000D03*
X92576000Y-32325000D03*
X95751000Y-38675000D03*
X95751000Y-35500000D03*
X95751000Y-32325000D03*
D50*
X93846000Y-41850000D03*
X93846000Y-29150000D03*
D19*
X164450000Y-107300000D03*
X164450000Y-105300000D03*
D30*
X38280000Y-65370000D03*
X40280000Y-65370000D03*
D42*
X74487000Y-126619000D03*
X74487000Y-127889000D03*
X74487000Y-129159000D03*
X74487000Y-130429000D03*
X79437000Y-130429000D03*
X79437000Y-129159000D03*
X79437000Y-127889000D03*
X79437000Y-126619000D03*
D51*
X51070000Y-55985000D03*
X48530000Y-55985000D03*
X48530000Y-65515000D03*
X51070000Y-65515000D03*
D31*
X150850000Y-66987500D03*
X150850000Y-64912500D03*
D52*
X45000000Y-72112500D03*
X45000000Y-70287500D03*
D53*
X112944500Y-71850000D03*
X117619500Y-71850000D03*
D31*
X114325000Y-61362500D03*
X114325000Y-59287500D03*
D51*
X100530000Y-39415000D03*
X103070000Y-39415000D03*
X103070000Y-29885000D03*
X100530000Y-29885000D03*
D42*
X66867000Y-154813000D03*
X66867000Y-156083000D03*
X66867000Y-157353000D03*
X66867000Y-158623000D03*
X71817000Y-158623000D03*
X71817000Y-157353000D03*
X71817000Y-156083000D03*
X71817000Y-154813000D03*
D18*
X50900000Y-28200000D03*
X48900000Y-28200000D03*
D39*
X107939000Y-72265000D03*
D40*
X107939000Y-74805000D03*
X105399000Y-72265000D03*
X105399000Y-74805000D03*
X102859000Y-72265000D03*
X102859000Y-74805000D03*
X100319000Y-72265000D03*
X100319000Y-74805000D03*
X97779000Y-72265000D03*
X97779000Y-74805000D03*
X95239000Y-72265000D03*
X95239000Y-74805000D03*
X92699000Y-72265000D03*
X92699000Y-74805000D03*
X90159000Y-72265000D03*
X90159000Y-74805000D03*
X87619000Y-72265000D03*
X87619000Y-74805000D03*
X85079000Y-72265000D03*
X85079000Y-74805000D03*
X82539000Y-72265000D03*
X82539000Y-74805000D03*
X79999000Y-72265000D03*
X79999000Y-74805000D03*
X77459000Y-72265000D03*
X77459000Y-74805000D03*
X74919000Y-72265000D03*
X74919000Y-74805000D03*
X72379000Y-72265000D03*
X72379000Y-74805000D03*
D29*
X164540000Y-136475000D03*
X163270000Y-136475000D03*
X162000000Y-136475000D03*
X160730000Y-136475000D03*
X159460000Y-136475000D03*
X158190000Y-136475000D03*
X156920000Y-136475000D03*
X156920000Y-141425000D03*
X158190000Y-141425000D03*
X159460000Y-141425000D03*
X160730000Y-141425000D03*
X162000000Y-141425000D03*
X163270000Y-141425000D03*
X164540000Y-141425000D03*
D51*
X106730000Y-39365000D03*
X109270000Y-39365000D03*
X109270000Y-29835000D03*
X106730000Y-29835000D03*
D23*
X28440000Y-91200000D03*
X25900000Y-86120000D03*
X23360000Y-91200000D03*
D46*
X115735000Y-41905000D03*
X115735000Y-49525000D03*
X128435000Y-41905000D03*
X128435000Y-49525000D03*
D54*
X93800000Y-44200000D03*
X90500000Y-44200000D03*
D46*
X73925000Y-41045000D03*
X73925000Y-48665000D03*
X86625000Y-41045000D03*
X86625000Y-48665000D03*
D19*
X32100000Y-153000000D03*
X32100000Y-151000000D03*
D55*
X44962500Y-91400000D03*
X44962500Y-93300000D03*
X46837500Y-92350000D03*
D30*
X71644000Y-120396000D03*
X73644000Y-120396000D03*
D15*
X21520000Y-51450000D03*
X21520000Y-48950000D03*
D18*
X44800000Y-110000000D03*
X42800000Y-110000000D03*
D56*
X41190000Y-69800000D03*
X41190000Y-70750000D03*
X41190000Y-71700000D03*
X43510000Y-71700000D03*
X43510000Y-69800000D03*
D34*
X120550000Y-105625000D03*
X120550000Y-107675000D03*
D57*
X59081000Y-120142000D03*
X62331000Y-120142000D03*
D58*
X34000000Y-166625000D03*
X29000000Y-166625000D03*
D59*
X29200000Y-162625000D03*
X33800000Y-162625000D03*
D60*
X28750000Y-170125000D03*
X34250000Y-170125000D03*
D19*
X61976000Y-157972000D03*
X61976000Y-155972000D03*
D61*
X106470000Y-85950000D03*
X106470000Y-86600000D03*
X106470000Y-87250000D03*
X109130000Y-87250000D03*
X109130000Y-85950000D03*
D62*
X27635000Y-58060000D03*
X27635000Y-55520000D03*
X18105000Y-55520000D03*
X18105000Y-58060000D03*
D51*
X50970000Y-32255000D03*
X48430000Y-32255000D03*
X48430000Y-41785000D03*
X50970000Y-41785000D03*
D37*
X85112500Y-154050000D03*
X81987500Y-154050000D03*
D63*
X161350000Y-167200000D03*
X168350000Y-167200000D03*
D64*
X167100000Y-169700000D03*
X162600000Y-169700000D03*
D19*
X27400000Y-49610000D03*
X27400000Y-47610000D03*
D65*
X26650000Y-111000000D03*
D66*
X27800000Y-107000000D03*
D65*
X28950000Y-111000000D03*
D62*
X47085000Y-69080000D03*
X47085000Y-71620000D03*
X56615000Y-71620000D03*
X56615000Y-69080000D03*
D19*
X113950000Y-116700000D03*
X113950000Y-114700000D03*
D31*
X67310000Y-137435500D03*
X67310000Y-135360500D03*
D30*
X36846000Y-119888000D03*
X38846000Y-119888000D03*
D19*
X131000000Y-120050000D03*
X131000000Y-118050000D03*
D54*
X122070000Y-34730000D03*
X125370000Y-34730000D03*
D19*
X102836000Y-70056000D03*
X102836000Y-68056000D03*
D47*
X158000000Y-38375000D03*
X158950000Y-38375000D03*
X159900000Y-38375000D03*
X159900000Y-36100000D03*
X158950000Y-36100000D03*
X158000000Y-36100000D03*
D14*
X38850000Y-156050000D03*
X38850000Y-158050000D03*
D19*
X97350000Y-46150000D03*
X97350000Y-44150000D03*
D18*
X68564000Y-146304000D03*
X66564000Y-146304000D03*
D14*
X78486000Y-154740500D03*
X78486000Y-156740500D03*
D19*
X148575000Y-161500000D03*
X148575000Y-159500000D03*
D17*
X168050000Y-125312500D03*
X168050000Y-127387500D03*
D67*
X89185500Y-64424000D03*
X89185500Y-62524000D03*
X87310500Y-63474000D03*
D68*
X73935500Y-133350000D03*
X71860500Y-133350000D03*
D42*
X82361000Y-138049000D03*
X82361000Y-139319000D03*
X82361000Y-140589000D03*
X82361000Y-141859000D03*
X87311000Y-141859000D03*
X87311000Y-140589000D03*
X87311000Y-139319000D03*
X87311000Y-138049000D03*
D30*
X42100000Y-157350000D03*
X44100000Y-157350000D03*
D34*
X166500000Y-105325000D03*
X166500000Y-107375000D03*
D29*
X164500000Y-123935000D03*
X163230000Y-123935000D03*
X161960000Y-123935000D03*
X160690000Y-123935000D03*
X159420000Y-123935000D03*
X158150000Y-123935000D03*
X156880000Y-123935000D03*
X156880000Y-128885000D03*
X158150000Y-128885000D03*
X159420000Y-128885000D03*
X160690000Y-128885000D03*
X161960000Y-128885000D03*
X163230000Y-128885000D03*
X164500000Y-128885000D03*
D30*
X109650000Y-54400000D03*
X111650000Y-54400000D03*
D23*
X38700000Y-91200000D03*
X36160000Y-86120000D03*
X33620000Y-91200000D03*
D69*
X136275000Y-123795000D03*
X135005000Y-123795000D03*
X133735000Y-123795000D03*
X132465000Y-123795000D03*
X131195000Y-123795000D03*
X129925000Y-123795000D03*
X128655000Y-123795000D03*
X127385000Y-123795000D03*
X127385000Y-128945000D03*
X128655000Y-128945000D03*
X129925000Y-128945000D03*
X131195000Y-128945000D03*
X132465000Y-128945000D03*
X133735000Y-128945000D03*
X135005000Y-128945000D03*
X136275000Y-128945000D03*
D23*
X60740000Y-89055000D03*
X58200000Y-83975000D03*
X55660000Y-89055000D03*
D68*
X133837500Y-144000000D03*
X131762500Y-144000000D03*
D30*
X53610000Y-119888000D03*
X55610000Y-119888000D03*
D14*
X98250000Y-150200000D03*
X98250000Y-152200000D03*
D23*
X42926000Y-142355000D03*
X40386000Y-137275000D03*
X37846000Y-142355000D03*
D38*
X64950000Y-80750000D03*
X65600000Y-80750000D03*
X66250000Y-80750000D03*
X66250000Y-78090000D03*
X64950000Y-78090000D03*
D19*
X68450000Y-93250000D03*
X68450000Y-91250000D03*
D45*
X27262500Y-80300000D03*
X29337500Y-80300000D03*
D55*
X51162500Y-97850000D03*
X51162500Y-99750000D03*
X53037500Y-98800000D03*
D18*
X51800000Y-74300000D03*
X49800000Y-74300000D03*
D14*
X23530000Y-144440000D03*
X23530000Y-146440000D03*
D30*
X156500000Y-168148000D03*
X158500000Y-168148000D03*
D70*
X28700000Y-156425000D03*
X28700000Y-159675000D03*
D12*
X85699000Y-144526000D03*
X82449000Y-144526000D03*
D23*
X42926000Y-152769000D03*
X40386000Y-147689000D03*
X37846000Y-152769000D03*
D30*
X31258000Y-68326000D03*
X33258000Y-68326000D03*
D68*
X44787500Y-80250000D03*
X42712500Y-80250000D03*
D30*
X156500000Y-164800000D03*
X158500000Y-164800000D03*
D14*
X38000000Y-73700000D03*
X38000000Y-75700000D03*
D18*
X120380000Y-34380000D03*
X118380000Y-34380000D03*
D19*
X51660000Y-47380000D03*
X51660000Y-45380000D03*
D71*
X84065000Y-85724800D03*
X82795000Y-85724800D03*
X81525000Y-85724800D03*
X80255000Y-85724800D03*
X78985000Y-85724800D03*
X77715000Y-85724800D03*
X76445000Y-85724800D03*
X75175000Y-85724800D03*
X73905000Y-85724800D03*
X72635000Y-85724800D03*
X72635000Y-95275200D03*
X73905000Y-95275200D03*
X75175000Y-95275200D03*
X76445000Y-95275200D03*
X77715000Y-95275200D03*
X78985000Y-95275200D03*
X80255000Y-95275200D03*
X81525000Y-95275200D03*
X82795000Y-95275200D03*
X84065000Y-95275200D03*
D17*
X167850000Y-150562500D03*
X167850000Y-152637500D03*
D45*
X61954500Y-137398000D03*
X64029500Y-137398000D03*
D23*
X54864000Y-152769000D03*
X52324000Y-147689000D03*
X49784000Y-152769000D03*
D18*
X72200000Y-123550000D03*
X70200000Y-123550000D03*
D30*
X42460000Y-66580000D03*
X44460000Y-66580000D03*
D18*
X61375000Y-72650000D03*
X59375000Y-72650000D03*
D30*
X143175000Y-161290000D03*
X145175000Y-161290000D03*
D72*
X169650000Y-89062500D03*
X169650000Y-93737500D03*
D30*
X32000000Y-111400000D03*
X34000000Y-111400000D03*
D19*
X86450000Y-130700000D03*
X86450000Y-128700000D03*
D29*
X150060000Y-149085000D03*
X148790000Y-149085000D03*
X147520000Y-149085000D03*
X146250000Y-149085000D03*
X144980000Y-149085000D03*
X143710000Y-149085000D03*
X142440000Y-149085000D03*
X142440000Y-154035000D03*
X143710000Y-154035000D03*
X144980000Y-154035000D03*
X146250000Y-154035000D03*
X147520000Y-154035000D03*
X148790000Y-154035000D03*
X150060000Y-154035000D03*
D14*
X133150000Y-157200000D03*
X133150000Y-159200000D03*
D45*
X158692500Y-62470000D03*
X160767500Y-62470000D03*
D13*
X50137500Y-92700000D03*
X53262500Y-92700000D03*
D73*
X90225000Y-156200000D03*
X92275000Y-156200000D03*
D29*
X150050000Y-123905000D03*
X148780000Y-123905000D03*
X147510000Y-123905000D03*
X146240000Y-123905000D03*
X144970000Y-123905000D03*
X143700000Y-123905000D03*
X142430000Y-123905000D03*
X142430000Y-128855000D03*
X143700000Y-128855000D03*
X144970000Y-128855000D03*
X146240000Y-128855000D03*
X147510000Y-128855000D03*
X148780000Y-128855000D03*
X150050000Y-128855000D03*
D18*
X62300000Y-93900000D03*
X60300000Y-93900000D03*
D19*
X83566000Y-159496000D03*
X83566000Y-157496000D03*
D74*
X80772000Y-124561000D03*
X80772000Y-121311000D03*
D30*
X36750000Y-61900000D03*
X38750000Y-61900000D03*
X78100000Y-151525000D03*
X80100000Y-151525000D03*
D23*
X66802000Y-131941000D03*
X64262000Y-126861000D03*
X61722000Y-131941000D03*
D42*
X118021250Y-60157500D03*
X118021250Y-61427500D03*
X118021250Y-62697500D03*
X118021250Y-63967500D03*
X122971250Y-63967500D03*
X122971250Y-62697500D03*
X122971250Y-61427500D03*
X122971250Y-60157500D03*
D23*
X54864000Y-131941000D03*
X52324000Y-126861000D03*
X49784000Y-131941000D03*
D18*
X86100000Y-125450000D03*
X84100000Y-125450000D03*
D34*
X113950000Y-118475000D03*
X113950000Y-120525000D03*
D30*
X62500000Y-152908000D03*
X64500000Y-152908000D03*
D19*
X95216000Y-70056000D03*
X95216000Y-68056000D03*
D75*
X142800000Y-95700000D03*
D45*
X150600500Y-70612000D03*
X152675500Y-70612000D03*
D30*
X36846000Y-123190000D03*
X38846000Y-123190000D03*
D76*
X166800000Y-82230000D03*
D77*
X169340000Y-65570000D03*
D78*
X166800000Y-65570000D03*
X164260000Y-65570000D03*
D19*
X64950000Y-93250000D03*
X64950000Y-91250000D03*
D73*
X169400000Y-112575000D03*
X171450000Y-112575000D03*
D12*
X156155000Y-64490000D03*
X152905000Y-64490000D03*
D53*
X112944500Y-75152000D03*
X117619500Y-75152000D03*
D71*
X135035000Y-65725200D03*
X136305000Y-65725200D03*
X137575000Y-65725200D03*
X138845000Y-65725200D03*
X140115000Y-65725200D03*
X141385000Y-65725200D03*
X142655000Y-65725200D03*
X143925000Y-65725200D03*
X145195000Y-65725200D03*
X146465000Y-65725200D03*
X146465000Y-56174800D03*
X145195000Y-56174800D03*
X143925000Y-56174800D03*
X142655000Y-56174800D03*
X141385000Y-56174800D03*
X140115000Y-56174800D03*
X138845000Y-56174800D03*
X137575000Y-56174800D03*
X136305000Y-56174800D03*
X135035000Y-56174800D03*
D18*
X122746250Y-65812500D03*
X120746250Y-65812500D03*
D31*
X47300000Y-76037500D03*
X47300000Y-73962500D03*
D29*
X35605000Y-104025000D03*
X34335000Y-104025000D03*
X33065000Y-104025000D03*
X31795000Y-104025000D03*
X31795000Y-108975000D03*
X33065000Y-108975000D03*
X34335000Y-108975000D03*
X35605000Y-108975000D03*
D14*
X52000000Y-80100000D03*
X52000000Y-82100000D03*
D34*
X116000000Y-118475000D03*
X116000000Y-120525000D03*
D30*
X49292000Y-119888000D03*
X51292000Y-119888000D03*
D46*
X133975000Y-41915000D03*
X133975000Y-49535000D03*
X146675000Y-41915000D03*
X146675000Y-49535000D03*
D18*
X171375000Y-114625000D03*
X169375000Y-114625000D03*
D19*
X133000000Y-120050000D03*
X133000000Y-118050000D03*
D14*
X76454000Y-141224000D03*
X76454000Y-143224000D03*
D79*
X51510000Y-52560000D03*
X51510000Y-49260000D03*
D19*
X36800000Y-159550000D03*
X36800000Y-157550000D03*
X68072000Y-151622000D03*
X68072000Y-149622000D03*
D70*
X76708000Y-132487000D03*
X76708000Y-135737000D03*
X32100000Y-156375000D03*
X32100000Y-159625000D03*
D17*
X167000000Y-138012500D03*
X167000000Y-140087500D03*
D18*
X76438000Y-156756500D03*
X74438000Y-156756500D03*
D19*
X25146000Y-70596000D03*
X25146000Y-68596000D03*
D17*
X109200000Y-144762500D03*
X109200000Y-146837500D03*
D14*
X57150000Y-115332000D03*
X57150000Y-117332000D03*
D30*
X38700000Y-80600000D03*
X40700000Y-80600000D03*
D54*
X45900000Y-58350000D03*
X42600000Y-58350000D03*
D49*
X61070000Y-168950000D03*
X66070000Y-168950000D03*
X71070000Y-168950000D03*
D31*
X126696250Y-64000000D03*
X126696250Y-61925000D03*
D45*
X25962500Y-103900000D03*
X28037500Y-103900000D03*
D14*
X148400000Y-61700000D03*
X148400000Y-63700000D03*
D51*
X152320000Y-46085000D03*
X154860000Y-46085000D03*
X154860000Y-36555000D03*
X152320000Y-36555000D03*
D18*
X80502000Y-145034000D03*
X78502000Y-145034000D03*
D55*
X27256500Y-68392000D03*
X27256500Y-70292000D03*
X29131500Y-69342000D03*
D80*
X166760000Y-29490000D03*
D81*
X166760000Y-23190000D03*
D82*
X161960000Y-26590000D03*
D29*
X164460000Y-111325000D03*
X163190000Y-111325000D03*
X161920000Y-111325000D03*
X160650000Y-111325000D03*
X159380000Y-111325000D03*
X158110000Y-111325000D03*
X156840000Y-111325000D03*
X156840000Y-116275000D03*
X158110000Y-116275000D03*
X159380000Y-116275000D03*
X160650000Y-116275000D03*
X161920000Y-116275000D03*
X163190000Y-116275000D03*
X164460000Y-116275000D03*
D79*
X84950000Y-65800000D03*
X84950000Y-62500000D03*
D38*
X38170000Y-70510000D03*
X38820000Y-70510000D03*
X39470000Y-70510000D03*
X39470000Y-67850000D03*
X38170000Y-67850000D03*
D19*
X120100000Y-116700000D03*
X120100000Y-114700000D03*
D73*
X169375000Y-120050000D03*
X171425000Y-120050000D03*
D14*
X145470000Y-68030000D03*
X145470000Y-70030000D03*
D18*
X89600000Y-134750000D03*
X87600000Y-134750000D03*
D19*
X55950000Y-33050000D03*
X55950000Y-31050000D03*
D62*
X59735000Y-67230000D03*
X59735000Y-69770000D03*
X69265000Y-69770000D03*
X69265000Y-67230000D03*
D83*
X166940000Y-61630000D03*
X166940000Y-39030000D03*
D23*
X153680000Y-162713500D03*
X151140000Y-162713500D03*
X153680000Y-165253500D03*
X151140000Y-165253500D03*
X153680000Y-167793500D03*
X151140000Y-167793500D03*
D32*
X88420000Y-23300331D03*
X113420000Y-23300331D03*
D33*
X95380000Y-23600331D03*
D15*
X98150000Y-23600331D03*
X100920000Y-23600331D03*
X103690000Y-23600331D03*
X106460000Y-23600331D03*
X96765000Y-20760331D03*
X99535000Y-20760331D03*
X102305000Y-20760331D03*
X105075000Y-20760331D03*
D29*
X107710000Y-149125000D03*
X106440000Y-149125000D03*
X105170000Y-149125000D03*
X103900000Y-149125000D03*
X102630000Y-149125000D03*
X101360000Y-149125000D03*
X100090000Y-149125000D03*
X100090000Y-154075000D03*
X101360000Y-154075000D03*
X102630000Y-154075000D03*
X103900000Y-154075000D03*
X105170000Y-154075000D03*
X106440000Y-154075000D03*
X107710000Y-154075000D03*
D33*
X151080000Y-58060000D03*
D15*
X154580000Y-58060000D03*
D68*
X44737500Y-107500000D03*
X42662500Y-107500000D03*
D17*
X123150000Y-132312500D03*
X123150000Y-134387500D03*
D30*
X91200000Y-104400000D03*
X93200000Y-104400000D03*
D19*
X135000000Y-120050000D03*
X135000000Y-118050000D03*
D51*
X33520000Y-53805000D03*
X30980000Y-53805000D03*
X30980000Y-63335000D03*
X33520000Y-63335000D03*
D14*
X19340000Y-60740000D03*
X19340000Y-62740000D03*
D18*
X28350000Y-62200000D03*
X26350000Y-62200000D03*
D71*
X102201000Y-85616800D03*
X100931000Y-85616800D03*
X99661000Y-85616800D03*
X98391000Y-85616800D03*
X97121000Y-85616800D03*
X95851000Y-85616800D03*
X94581000Y-85616800D03*
X93311000Y-85616800D03*
X92041000Y-85616800D03*
X90771000Y-85616800D03*
X90771000Y-95167200D03*
X92041000Y-95167200D03*
X93311000Y-95167200D03*
X94581000Y-95167200D03*
X95851000Y-95167200D03*
X97121000Y-95167200D03*
X98391000Y-95167200D03*
X99661000Y-95167200D03*
X100931000Y-95167200D03*
X102201000Y-95167200D03*
D54*
X46450000Y-80400000D03*
X49750000Y-80400000D03*
D34*
X118050000Y-118475000D03*
X118050000Y-120525000D03*
D55*
X33860500Y-72202000D03*
X33860500Y-74102000D03*
X35735500Y-73152000D03*
D32*
X55130000Y-23300331D03*
X80130000Y-23300331D03*
D33*
X62090000Y-23600331D03*
D15*
X64860000Y-23600331D03*
X67630000Y-23600331D03*
X70400000Y-23600331D03*
X73170000Y-23600331D03*
X63475000Y-20760331D03*
X66245000Y-20760331D03*
X69015000Y-20760331D03*
X71785000Y-20760331D03*
D14*
X88300000Y-32400000D03*
X88300000Y-34400000D03*
D84*
X37675000Y-101605000D03*
X37675000Y-100335000D03*
X37675000Y-99065000D03*
X37675000Y-97795000D03*
X32725000Y-97795000D03*
X32725000Y-99065000D03*
X32725000Y-100335000D03*
X32725000Y-101605000D03*
D15*
X136990000Y-33210000D03*
X139490000Y-33210000D03*
D46*
X20100000Y-33670000D03*
X20100000Y-41290000D03*
X32800000Y-33670000D03*
X32800000Y-41290000D03*
D44*
X141040000Y-164420000D03*
X138500000Y-164420000D03*
X135960000Y-164420000D03*
X141040000Y-161880000D03*
X138500000Y-161880000D03*
X135960000Y-161880000D03*
D22*
X141040000Y-169500000D03*
X135960000Y-169500000D03*
D19*
X116000000Y-116700000D03*
X116000000Y-114700000D03*
D15*
X85000000Y-57850000D03*
X87500000Y-57850000D03*
D14*
X138870000Y-68030000D03*
X138870000Y-70030000D03*
D30*
X57000000Y-98600000D03*
X59000000Y-98600000D03*
D85*
X57788500Y-63846500D03*
X60963500Y-56353500D03*
X54613500Y-56353500D03*
X79886500Y-63846500D03*
X79886500Y-56353500D03*
D30*
X31260000Y-49160000D03*
X33260000Y-49160000D03*
D19*
X100296000Y-70056000D03*
X100296000Y-68056000D03*
D14*
X109800000Y-48950000D03*
X109800000Y-50950000D03*
D86*
X129845000Y-115860000D03*
X131115000Y-115860000D03*
X132385000Y-115860000D03*
X133655000Y-115860000D03*
X133655000Y-108240000D03*
X132385000Y-108240000D03*
X131115000Y-108240000D03*
X129845000Y-108240000D03*
D14*
X47650000Y-47400000D03*
X47650000Y-49400000D03*
D17*
X41100000Y-98862500D03*
X41100000Y-100937500D03*
D42*
X59725000Y-100490000D03*
X59725000Y-101760000D03*
X59725000Y-103030000D03*
X59725000Y-104300000D03*
X59725000Y-105570000D03*
X59725000Y-106840000D03*
X59725000Y-108110000D03*
X64675000Y-108110000D03*
X64675000Y-106840000D03*
X64675000Y-105570000D03*
X64675000Y-104300000D03*
X64675000Y-103030000D03*
X64675000Y-101760000D03*
X64675000Y-100490000D03*
D18*
X67150000Y-83120000D03*
X65150000Y-83120000D03*
D76*
X155720000Y-92800000D03*
D77*
X158260000Y-76140000D03*
D78*
X155720000Y-76140000D03*
X153180000Y-76140000D03*
D72*
X165500000Y-89062500D03*
X165500000Y-93737500D03*
D19*
X64516000Y-148320000D03*
X64516000Y-146320000D03*
D23*
X55540000Y-109955000D03*
X53000000Y-104875000D03*
X50460000Y-109955000D03*
D13*
X46189500Y-159250000D03*
X49314500Y-159250000D03*
D57*
X44700000Y-100200000D03*
X47950000Y-100200000D03*
D75*
X70450000Y-114700000D03*
D30*
X74692000Y-139192000D03*
X76692000Y-139192000D03*
D12*
X74269000Y-144526000D03*
X71019000Y-144526000D03*
D21*
X113690000Y-164400000D03*
X111150000Y-164400000D03*
X108610000Y-164400000D03*
D22*
X113690000Y-169480000D03*
X108610000Y-169480000D03*
D49*
X80750000Y-168950000D03*
X85750000Y-168950000D03*
X90750000Y-168950000D03*
D14*
X152070000Y-48500000D03*
X152070000Y-50500000D03*
D18*
X28600000Y-141500000D03*
X26600000Y-141500000D03*
D19*
X118100000Y-116700000D03*
X118100000Y-114700000D03*
D14*
X142120000Y-68030000D03*
X142120000Y-70030000D03*
D19*
X126696250Y-60062500D03*
X126696250Y-58062500D03*
D29*
X164560000Y-149075000D03*
X163290000Y-149075000D03*
X162020000Y-149075000D03*
X160750000Y-149075000D03*
X159480000Y-149075000D03*
X158210000Y-149075000D03*
X156940000Y-149075000D03*
X156940000Y-154025000D03*
X158210000Y-154025000D03*
X159480000Y-154025000D03*
X160750000Y-154025000D03*
X162020000Y-154025000D03*
X163290000Y-154025000D03*
X164560000Y-154025000D03*
D14*
X29972000Y-72152000D03*
X29972000Y-74152000D03*
D30*
X58436000Y-153670000D03*
X60436000Y-153670000D03*
D19*
X21498000Y-146440000D03*
X21498000Y-144440000D03*
D21*
X131940000Y-164380000D03*
X129400000Y-164380000D03*
X126860000Y-164380000D03*
D22*
X131940000Y-169460000D03*
X126860000Y-169460000D03*
D18*
X171400000Y-122100000D03*
X169400000Y-122100000D03*
D17*
X152100000Y-132262500D03*
X152100000Y-134337500D03*
D87*
X156270000Y-70535000D03*
X156270000Y-68485000D03*
D45*
X153902500Y-73660000D03*
X155977500Y-73660000D03*
D30*
X26300000Y-100200000D03*
X28300000Y-100200000D03*
X41672000Y-119888000D03*
X43672000Y-119888000D03*
D25*
X142670000Y-23140000D03*
X157910000Y-23140000D03*
D26*
X145210000Y-28220000D03*
X150290000Y-28220000D03*
X155370000Y-28220000D03*
X147750000Y-30760000D03*
X152830000Y-30760000D03*
X150290000Y-33300000D03*
X142670000Y-30760000D03*
X157910000Y-30760000D03*
D88*
X152830000Y-18060000D03*
X147750000Y-18060000D03*
D18*
X76438000Y-160782000D03*
X74438000Y-160782000D03*
D57*
X38761000Y-115824000D03*
X42011000Y-115824000D03*
D85*
X37403500Y-33308500D03*
X44896500Y-36483500D03*
X44896500Y-30133500D03*
X37403500Y-55406500D03*
X44896500Y-55406500D03*
D30*
X58436000Y-140700000D03*
X60436000Y-140700000D03*
D17*
X80772000Y-132312500D03*
X80772000Y-134387500D03*
D30*
X156500000Y-161544000D03*
X158500000Y-161544000D03*
D70*
X59436000Y-146949000D03*
X59436000Y-150199000D03*
D18*
X92200000Y-158150000D03*
X90200000Y-158150000D03*
D47*
X86875000Y-83037500D03*
X87825000Y-83037500D03*
X88775000Y-83037500D03*
X88775000Y-80762500D03*
X87825000Y-80762500D03*
X86875000Y-80762500D03*
D31*
X159850000Y-67357500D03*
X159850000Y-65282500D03*
D17*
X69342000Y-135360500D03*
X69342000Y-137435500D03*
D29*
X135630000Y-136475000D03*
X134360000Y-136475000D03*
X133090000Y-136475000D03*
X131820000Y-136475000D03*
X130550000Y-136475000D03*
X129280000Y-136475000D03*
X128010000Y-136475000D03*
X128010000Y-141425000D03*
X129280000Y-141425000D03*
X130550000Y-141425000D03*
X131820000Y-141425000D03*
X133090000Y-141425000D03*
X134360000Y-141425000D03*
X135630000Y-141425000D03*
D14*
X70612000Y-129302000D03*
X70612000Y-131302000D03*
D30*
X26500000Y-52900000D03*
X28500000Y-52900000D03*
D13*
X63207500Y-123190000D03*
X66332500Y-123190000D03*
D31*
X71882000Y-127529500D03*
X71882000Y-125454500D03*
M02*
